<?xml version="1.0" encoding="utf-8"?>
<!-- Generator: Adobe Illustrator 19.2.0, SVG Export Plug-In . SVG Version: 6.00 Build 0)  -->
<svg version="1.1" id="Layer_1" xmlns="http://www.w3.org/2000/svg" xmlns:xlink="http://www.w3.org/1999/xlink" x="0px" y="0px"
	 viewBox="0 0 214.7 11" style="enable-background:new 0 0 214.7 11;" xml:space="preserve">
<style type="text/css">
	.st0{fill:#FFFFFF;}
</style>
<g>
	<g>
		<path class="st0" d="M81.5,8.3c-0.2,0.5-0.4,1-0.8,1.4s-0.9,0.7-1.4,0.9c-0.5,0.2-1.2,0.3-2,0.3c-0.7,0-1.3-0.1-1.8-0.2
			c-0.5-0.2-1-0.4-1.3-0.7c-0.4-0.3-0.7-0.7-0.9-1.2c-0.2-0.4-0.4-1-0.5-1.5l2.9-0.7c0.2,0.6,0.4,1,0.7,1.3c0.2,0.3,0.6,0.5,1.2,0.5
			c0.5,0,0.8-0.1,1-0.4s0.4-0.7,0.4-1.2V0.2h3v6.2C81.8,7.2,81.7,7.8,81.5,8.3z"/>
		<path class="st0" d="M91.9,9.9c-0.7,0.6-1.6,0.9-3,0.9h-5V0.2H89c1.3,0,2.3,0.2,2.8,0.7s0.9,1.2,0.9,2c0,0.5-0.1,1-0.4,1.3
			C92,4.6,91.7,4.9,91.3,5c0.5,0.2,0.9,0.5,1.1,0.9c0.2,0.4,0.4,0.9,0.4,1.5C92.9,8.5,92.6,9.2,91.9,9.9z M89.6,2.8
			c-0.1-0.2-0.4-0.2-0.7-0.2h-2.2v1.6h2.2c0.4,0,0.5-0.1,0.7-0.2c0.1-0.1,0.2-0.4,0.2-0.6C89.8,3.2,89.7,2.9,89.6,2.8z M89.8,6.7
			c-0.2-0.2-0.4-0.2-0.8-0.2h-2.3v2.1H89c0.4,0,0.6-0.1,0.8-0.3C89.9,8,90,7.8,90,7.5C90,7.1,89.9,6.9,89.8,6.7z"/>
		<path class="st0" d="M103.5,7.8c-0.2,0.7-0.5,1.2-1,1.7c-0.4,0.5-1,0.8-1.5,1c-0.6,0.2-1.3,0.4-2,0.4c-0.7,0-1.3-0.1-2-0.4
			c-0.6-0.2-1.1-0.6-1.5-1c-0.4-0.5-0.8-1-1-1.7c-0.2-0.7-0.4-1.5-0.4-2.3s0.1-1.6,0.4-2.3c0.2-0.7,0.5-1.2,1-1.7
			c0.4-0.5,1-0.8,1.5-1C97.6,0.2,98.3,0,99,0c0.7,0,1.3,0.1,2,0.4s1.1,0.6,1.5,1c0.4,0.5,0.8,1,1,1.7c0.2,0.7,0.4,1.5,0.4,2.3
			C103.8,6.3,103.7,7.1,103.5,7.8z M100.4,3.3c-0.3-0.5-0.8-0.7-1.4-0.7s-1,0.2-1.3,0.7c-0.3,0.5-0.5,1.2-0.5,2.1
			c0,1,0.2,1.6,0.5,2.1c0.3,0.5,0.8,0.7,1.4,0.7s1-0.2,1.3-0.7c0.3-0.5,0.5-1.2,0.5-2.1S100.7,3.8,100.4,3.3z"/>
		<path class="st0" d="M113.4,9.1c-0.2,0.4-0.5,0.8-0.9,1c-0.4,0.2-0.9,0.5-1.4,0.6s-1.1,0.2-1.8,0.2c-0.9,0-1.6-0.1-2.4-0.4
			s-1.5-0.5-2-0.9l1.4-2.3c0.2,0.1,0.4,0.2,0.7,0.4c0.2,0.1,0.5,0.2,0.8,0.4c0.3,0.1,0.5,0.2,0.9,0.2c0.3,0.1,0.5,0.1,0.8,0.1
			c0.5,0,0.9-0.1,1.1-0.1c0.2-0.1,0.3-0.2,0.3-0.5c0-0.1,0-0.2-0.1-0.2c-0.1-0.1-0.1-0.2-0.3-0.2c-0.1-0.1-0.3-0.1-0.5-0.2
			c-0.2-0.1-0.5-0.1-0.9-0.2c-0.6-0.1-1.2-0.3-1.6-0.5c-0.5-0.2-0.9-0.4-1.2-0.6c-0.3-0.2-0.5-0.5-0.7-0.9c-0.2-0.4-0.2-0.8-0.2-1.3
			c0-0.5,0.1-0.9,0.3-1.3c0.2-0.4,0.5-0.8,0.9-1c0.4-0.3,0.8-0.5,1.3-0.7s1.1-0.2,1.7-0.2c0.9,0,1.7,0.1,2.4,0.3
			c0.7,0.2,1.3,0.5,1.8,0.9l-1.4,2.3c-0.5-0.3-0.9-0.5-1.4-0.7c-0.5-0.2-1-0.2-1.5-0.2c-0.4,0-0.7,0.1-0.9,0.2
			c-0.1,0.1-0.2,0.3-0.2,0.5c0,0.1,0,0.2,0.1,0.2c0.1,0.1,0.1,0.1,0.3,0.2c0.1,0.1,0.3,0.1,0.5,0.2c0.2,0.1,0.5,0.1,0.9,0.2
			c0.7,0.2,1.2,0.4,1.7,0.5s0.9,0.4,1.2,0.7c0.3,0.2,0.5,0.5,0.7,0.9c0.1,0.4,0.2,0.8,0.2,1.3C113.7,8.1,113.6,8.6,113.4,9.1z"/>
		<path class="st0" d="M123.4,9.1c-0.2,0.4-0.5,0.8-0.9,1c-0.4,0.2-0.9,0.5-1.4,0.6c-0.5,0.1-1.1,0.2-1.8,0.2
			c-0.9,0-1.6-0.1-2.4-0.4c-0.8-0.2-1.5-0.5-2-0.9l1.4-2.3c0.2,0.1,0.4,0.2,0.7,0.4c0.2,0.1,0.5,0.2,0.8,0.4
			c0.3,0.1,0.5,0.2,0.9,0.2c0.3,0.1,0.5,0.1,0.8,0.1c0.5,0,0.9-0.1,1.1-0.1c0.2-0.1,0.3-0.2,0.3-0.5c0-0.1,0-0.2-0.1-0.2
			c-0.1-0.1-0.1-0.2-0.3-0.2c-0.1-0.1-0.3-0.1-0.5-0.2c-0.2-0.1-0.5-0.1-0.9-0.2c-0.6-0.1-1.2-0.3-1.6-0.5c-0.5-0.2-0.9-0.4-1.2-0.6
			c-0.3-0.2-0.5-0.5-0.7-0.9c-0.2-0.4-0.2-0.8-0.2-1.3c0-0.5,0.1-0.9,0.3-1.3c0.2-0.4,0.5-0.8,0.9-1c0.4-0.3,0.8-0.5,1.3-0.7
			s1.1-0.2,1.7-0.2c0.9,0,1.7,0.1,2.4,0.3s1.3,0.5,1.8,0.9l-1.4,2.3c-0.5-0.3-0.9-0.5-1.4-0.7c-0.5-0.2-1-0.2-1.5-0.2
			c-0.4,0-0.7,0.1-0.9,0.2c-0.1,0.1-0.2,0.3-0.2,0.5c0,0.1,0.1,0.2,0.1,0.2c0.1,0.1,0.1,0.1,0.3,0.2c0.1,0.1,0.3,0.1,0.5,0.2
			c0.2,0.1,0.5,0.1,0.9,0.2c0.7,0.2,1.2,0.4,1.7,0.5s0.9,0.4,1.2,0.7c0.3,0.2,0.5,0.5,0.7,0.9c0.1,0.4,0.2,0.8,0.2,1.3
			C123.7,8.1,123.5,8.6,123.4,9.1z"/>
	</g>
	<g>
		<g>
			<path class="st0" d="M6.4,10.7L4.7,7.2H3.5v3.5H0.7V0.3h4.7C6,0.3,6.5,0.3,7,0.5s0.9,0.3,1.3,0.6c0.4,0.2,0.6,0.6,0.9,1
				C9.3,2.5,9.5,3,9.5,3.6c0,0.8-0.2,1.4-0.5,2C8.6,6.1,8.2,6.4,7.6,6.7l2.1,4C9.6,10.7,6.4,10.7,6.4,10.7z M6.2,2.9
				C6,2.7,5.7,2.6,5.2,2.6H3.5v2.3h1.7c0.5,0,0.8-0.1,1-0.3c0.2-0.2,0.3-0.5,0.3-0.9C6.5,3.4,6.5,3.2,6.2,2.9z"/>
		</g>
		<g>
			<path class="st0" d="M11.3,10.7V0.3h8v2.4h-5.1v1.4h3.1v2.4h-3.1v1.8h5.2v2.4H11.3z"/>
		</g>
		<g>
			<path class="st0" d="M30,7.9c-0.2,0.7-0.6,1.2-1.1,1.6s-1.1,0.7-1.8,0.9c-0.7,0.2-1.5,0.3-2.4,0.3h-3.4V0.3h3.7
				c0.8,0,1.6,0.1,2.3,0.2c0.7,0.2,1.2,0.4,1.7,0.9S29.7,2.3,30,3c0.2,0.7,0.4,1.5,0.4,2.4C30.4,6.4,30.2,7.2,30,7.9z M27.3,4.3
				c-0.1-0.4-0.2-0.6-0.4-0.9S26.4,3,26.1,2.9c-0.3-0.1-0.7-0.2-1.2-0.2h-0.7v5.5h0.6c0.4,0,0.9-0.1,1.2-0.1
				c0.3-0.1,0.6-0.2,0.8-0.5c0.2-0.2,0.4-0.5,0.4-0.9c0.1-0.4,0.1-0.8,0.1-1.3C27.4,5,27.4,4.6,27.3,4.3z"/>
		</g>
		<g>
			<path class="st0" d="M42.7,10.7V6.6h-3.3v4.1h-2.9V0.3h2.9v3.8h3.2V0.3h2.9v10.4H42.7z"/>
		</g>
		<g>
			<path class="st0" d="M54.5,10.7L54,8.9h-3.1l-0.5,1.8h-3.1L51,0.3h2.9l3.8,10.4H54.5z M53,5.9c-0.1-0.4-0.2-0.6-0.2-0.9
				c-0.1-0.2-0.1-0.5-0.2-0.7c-0.1-0.2-0.1-0.4-0.1-0.5c-0.1-0.2-0.1-0.3-0.1-0.5c-0.1,0.2-0.1,0.4-0.1,0.5s-0.1,0.4-0.1,0.5
				S52,4.9,51.9,5.1c-0.1,0.2-0.1,0.5-0.2,0.9l-0.2,0.7h1.7L53,5.9z"/>
		</g>
		<g>
			<path class="st0" d="M63.1,2.8v7.9h-2.9V2.8h-2.9V0.3H66v2.5H63.1z"/>
		</g>
	</g>
	<g>
		<path class="st0" d="M69.4,1.7c-0.1,0.1-0.1,0.2-0.2,0.3C69,2.1,69,2.2,68.8,2.2c-0.1,0.1-0.2,0.1-0.4,0.1c-0.1,0-0.3,0-0.4-0.1
			c-0.1-0.1-0.2-0.1-0.3-0.2c-0.1-0.1-0.2-0.2-0.2-0.3s-0.1-0.2-0.1-0.4c0-0.1,0-0.3,0.1-0.4s0.1-0.2,0.2-0.3
			c0.1-0.1,0.2-0.2,0.3-0.2s0.2-0.1,0.4-0.1c0.1,0,0.3,0,0.4,0.1s0.2,0.1,0.3,0.2c0.1,0.1,0.2,0.2,0.2,0.3s0.1,0.2,0.1,0.4
			C69.5,1.4,69.5,1.6,69.4,1.7z M69.3,1c-0.1-0.1-0.1-0.2-0.2-0.3c-0.1-0.1-0.2-0.1-0.3-0.2s-0.2-0.1-0.4-0.1s-0.2,0-0.4,0.1
			s-0.2,0.1-0.3,0.2c-0.1,0.1-0.1,0.2-0.2,0.3c-0.1,0.1-0.1,0.2-0.1,0.4s0,0.2,0.1,0.4s0.1,0.2,0.2,0.3c0.1,0.1,0.2,0.1,0.3,0.2
			s0.2,0.1,0.4,0.1s0.2,0,0.4-0.1S69,2.1,69.1,2c0.1-0.1,0.1-0.2,0.2-0.3c0.1-0.1,0.1-0.2,0.1-0.4S69.3,1.1,69.3,1z M68.8,1.3
			c-0.1,0.1-0.1,0.1-0.2,0.1l0.2,0.5h-0.2l-0.2-0.4h-0.2v0.4h-0.1V0.7h0.5c0.1,0,0.1,0,0.1,0c0.1,0,0.1,0.1,0.1,0.1s0.1,0.1,0.1,0.1
			s0,0.1,0,0.2C68.9,1.1,68.9,1.2,68.8,1.3z M68.7,1c-0.1,0-0.1-0.1-0.1-0.1h-0.3v0.3h0.3c0.1,0,0.1,0,0.1-0.1
			C68.7,1.1,68.7,1.1,68.7,1C68.7,1,68.7,1,68.7,1z"/>
	</g>
	<g>
		<path class="st0" d="M127.6,1.7c-0.1,0.1-0.1,0.2-0.2,0.3c-0.1,0.1-0.2,0.2-0.3,0.2c-0.1,0.1-0.2,0.1-0.4,0.1
			c-0.1,0-0.3,0-0.4-0.1c-0.1-0.1-0.2-0.1-0.3-0.2c-0.1-0.1-0.2-0.2-0.2-0.3c-0.1-0.1-0.1-0.2-0.1-0.4c0-0.1,0-0.3,0.1-0.4
			c0.1-0.1,0.1-0.2,0.2-0.3c0.1-0.1,0.2-0.2,0.3-0.2c0.1-0.1,0.2-0.1,0.4-0.1c0.1,0,0.3,0,0.4,0.1s0.2,0.1,0.3,0.2
			c0.1,0.1,0.2,0.2,0.2,0.3s0.1,0.2,0.1,0.4C127.7,1.4,127.7,1.6,127.6,1.7z M127.5,1c-0.1-0.1-0.1-0.2-0.2-0.3
			c-0.1-0.1-0.2-0.1-0.3-0.2s-0.2-0.1-0.4-0.1c-0.1,0-0.2,0-0.4,0.1c-0.1,0.1-0.2,0.1-0.3,0.2c-0.1,0.1-0.1,0.2-0.2,0.3
			c-0.1,0.1-0.1,0.2-0.1,0.4s0,0.2,0.1,0.4c0.1,0.1,0.1,0.2,0.2,0.3c0.1,0.1,0.2,0.1,0.3,0.2s0.2,0.1,0.4,0.1c0.1,0,0.2,0,0.4-0.1
			c0.1-0.1,0.2-0.1,0.3-0.2c0.1-0.1,0.1-0.2,0.2-0.3c0.1-0.1,0.1-0.2,0.1-0.4S127.5,1.1,127.5,1z M127.1,1.3
			c-0.1,0.1-0.1,0.1-0.2,0.1l0.2,0.5h-0.2l-0.2-0.4h-0.2v0.4h-0.2V0.7h0.5c0.1,0,0.1,0,0.1,0c0.1,0,0.1,0.1,0.1,0.1
			c0.1,0,0.1,0.1,0.1,0.1s0.1,0.1,0.1,0.2C127.1,1.1,127.1,1.2,127.1,1.3z M126.9,1c-0.1,0-0.1-0.1-0.1-0.1h-0.3v0.3h0.3
			c0.1,0,0.1,0,0.1-0.1C127,1.1,127,1.1,126.9,1C127,1,127,1,126.9,1z"/>
	</g>
	<g>
		<path class="st0" d="M141,8.8c-0.2,0.4-0.4,0.8-0.8,1.1c-0.3,0.3-0.7,0.5-1.2,0.7c-0.5,0.1-1,0.2-1.5,0.2h-4.8V0.2h4.9
			c1,0,1.8,0.2,2.4,0.7c0.6,0.5,0.9,1.2,0.9,2.1c0,0.4-0.1,0.9-0.3,1.2s-0.5,0.6-0.8,0.9c0.4,0.2,0.8,0.5,1,0.9
			c0.3,0.4,0.4,0.9,0.4,1.5C141.3,7.8,141.2,8.3,141,8.8z M138.5,2.4c-0.2-0.2-0.5-0.2-1-0.2h-2.7v2h2.8c0.4,0,0.7-0.1,0.9-0.3
			c0.2-0.2,0.2-0.4,0.2-0.7C138.8,2.8,138.7,2.5,138.5,2.4z M137.6,6h-2.8v2.7h2.8c0.5,0,0.9-0.1,1.2-0.4s0.4-0.6,0.4-1
			C139.1,6.4,138.6,6,137.6,6z"/>
		<path class="st0" d="M151.4,5.1c-0.2,0.4-0.5,0.8-0.8,1.1c-0.4,0.3-0.7,0.5-1.2,0.6c-0.5,0.1-1,0.2-1.5,0.2h-2.3v3.7h-2.1V0.2h4.6
			c0.5,0,1,0.1,1.4,0.2c0.4,0.1,0.9,0.4,1.2,0.6c0.3,0.3,0.6,0.6,0.8,1s0.3,0.9,0.3,1.5C151.7,4.1,151.6,4.6,151.4,5.1z M149.1,2.5
			c-0.3-0.2-0.7-0.3-1.2-0.3h-2.4v2.7h2.5c1,0,1.5-0.4,1.5-1.3C149.5,3.1,149.4,2.7,149.1,2.5z"/>
		<path class="st0" d="M161.5,10.7V6.8c0-0.1,0-0.3,0-0.5c0-0.2,0-0.4,0-0.7s0-0.4,0-0.7c0-0.2,0-0.4,0-0.4
			c-0.1,0.2-0.2,0.5-0.3,0.8c-0.1,0.3-0.3,0.7-0.4,1l-2.1,4.7l-2.1-4.7c-0.1-0.3-0.3-0.6-0.4-1c-0.1-0.3-0.2-0.6-0.3-0.8
			c0,0.1,0,0.2,0,0.4s0,0.4,0,0.7s0,0.5,0,0.7c0,0.2,0,0.4,0,0.5v3.9h-2.1V0.2h2l2.2,4.8c0.1,0.1,0.1,0.3,0.2,0.5
			c0.1,0.2,0.1,0.3,0.2,0.5c0.1,0.2,0.1,0.3,0.2,0.4c0.1,0.1,0.1,0.2,0.1,0.4c0.1-0.2,0.2-0.5,0.3-0.8c0.1-0.4,0.2-0.7,0.4-1
			l2.1-4.8h2.1v10.5C163.5,10.7,161.5,10.7,161.5,10.7z"/>
		<path class="st0" d="M178.2,8.9c-0.2,0.4-0.4,0.8-0.7,1c-0.4,0.3-0.8,0.5-1.3,0.7c-0.5,0.2-1.2,0.2-1.9,0.2
			c-0.9,0-1.7-0.2-2.4-0.5c-0.7-0.4-1.3-0.8-1.7-1.4l1.5-1.3c0.4,0.4,0.8,0.7,1.2,0.9c0.5,0.2,0.9,0.3,1.5,0.3
			c0.6,0,1.1-0.1,1.4-0.2c0.3-0.2,0.4-0.5,0.4-0.9c0-0.2,0-0.3-0.1-0.4c-0.1-0.1-0.2-0.2-0.4-0.4c-0.2-0.1-0.4-0.2-0.7-0.3
			c-0.3-0.1-0.7-0.2-1.2-0.3c-0.5-0.1-0.9-0.2-1.3-0.4c-0.4-0.1-0.7-0.4-1-0.5c-0.3-0.2-0.5-0.5-0.7-0.9c-0.2-0.4-0.2-0.8-0.2-1.3
			c0-0.5,0.1-0.9,0.3-1.3c0.2-0.4,0.5-0.7,0.8-1c0.4-0.2,0.7-0.5,1.2-0.6c0.5-0.1,1-0.2,1.5-0.2c0.9,0,1.5,0.1,2.2,0.4
			s1.2,0.7,1.7,1.2l-1.5,1.5c-0.4-0.4-0.7-0.6-1.1-0.8c-0.4-0.2-0.8-0.3-1.3-0.3c-0.3,0-0.5,0-0.7,0.1c-0.2,0.1-0.4,0.1-0.5,0.2
			c-0.1,0.1-0.2,0.2-0.2,0.3c-0.1,0.1-0.1,0.2-0.1,0.4c0,0.2,0.1,0.3,0.1,0.4c0.1,0.1,0.2,0.2,0.4,0.3c0.2,0.1,0.4,0.2,0.7,0.2
			c0.2,0.1,0.6,0.2,1,0.2c0.4,0.1,0.9,0.2,1.3,0.4c0.4,0.1,0.8,0.3,1.2,0.5c0.4,0.2,0.6,0.5,0.8,0.9c0.2,0.4,0.3,0.9,0.3,1.4
			C178.5,8,178.4,8.5,178.2,8.9z"/>
		<path class="st0" d="M188.1,9.6c-0.7,0.9-1.8,1.3-3.2,1.3c-0.6,0-1.2-0.1-1.8-0.3s-1-0.5-1.3-0.9c-0.4-0.4-0.7-0.9-0.9-1.5
			c-0.2-0.6-0.3-1.3-0.3-2.1V0.2h2.1v5.9c0,0.9,0.2,1.5,0.5,2c0.4,0.5,0.9,0.7,1.6,0.7s1.2-0.2,1.6-0.7c0.4-0.5,0.6-1.2,0.6-2V0.2
			h2.1v5.9C189.1,7.6,188.8,8.8,188.1,9.6z"/>
		<path class="st0" d="M192,10.7V0.2h2.1v10.5C194,10.7,192,10.7,192,10.7z"/>
		<path class="st0" d="M201.4,2.2v8.5h-2.1V2.2h-3V0.2h8.2v2.1H201.4z"/>
		<path class="st0" d="M206.5,10.7V0.2h7.3v2.1h-5.2v1.8h3v2h-3v2.6h5.4v2.1H206.5z"/>
	</g>
</g>
</svg>
