<?xml version="1.0" encoding="UTF-8"?>
<svg xmlns="http://www.w3.org/2000/svg" xmlns:xlink="http://www.w3.org/1999/xlink" width="150px" height="35px" viewBox="0 0 95 35" version="1.1">
<g id="surface1">
<path style=" stroke:none;fill-rule:nonzero;fill:rgb(25.882353%,41.568627%,70.196078%);fill-opacity:1;" d="M 63.925781 2.46875 L 63.082031 0 L 49.035156 0 L 49.035156 2.46875 Z M 65.566406 7.203125 L 64.710938 4.714844 L 49.035156 4.714844 L 49.035156 7.203125 Z M 76 35.515625 L 88.257812 35.515625 L 88.257812 33.046875 L 76 33.046875 Z M 76 30.800781 L 88.257812 30.800781 L 88.257812 28.3125 L 76 28.3125 Z M 76 26.066406 L 83.308594 26.066406 L 83.308594 23.597656 L 76 23.597656 Z M 83.308594 18.882812 L 76 18.882812 L 76 21.351562 L 83.308594 21.351562 Z M 76 16.632812 L 83.308594 16.632812 L 83.308594 14.164062 L 69.351562 14.164062 L 68.65625 16.15625 L 68.015625 14.164062 L 53.949219 14.164062 L 53.949219 16.632812 L 61.257812 16.632812 L 61.257812 14.367188 L 62.0625 16.632812 L 75.179688 16.632812 L 75.964844 14.367188 L 75.964844 16.632812 Z M 83.308594 9.449219 L 70.976562 9.449219 L 70.117188 11.917969 L 83.363281 11.917969 L 83.363281 9.46875 Z M 53.949219 21.351562 L 61.257812 21.351562 L 61.257812 18.882812 L 53.949219 18.882812 Z M 53.949219 26.066406 L 61.257812 26.066406 L 61.257812 23.597656 L 53.949219 23.597656 Z M 49.035156 30.800781 L 61.292969 30.800781 L 61.292969 28.3125 L 49.035156 28.3125 Z M 49.035156 35.515625 L 61.292969 35.515625 L 61.292969 33.046875 L 49.035156 33.046875 Z M 74.226562 0 L 73.371094 2.46875 L 88.257812 2.46875 L 88.257812 0 Z M 71.671875 7.203125 L 88.113281 7.203125 L 88.113281 4.714844 L 72.601562 4.714844 Z M 53.949219 11.917969 L 67.195312 11.917969 L 66.335938 9.46875 L 53.949219 9.46875 L 53.949219 11.9375 Z M 63.722656 21.351562 L 73.496094 21.351562 L 74.355469 18.882812 L 62.863281 18.882812 Z M 65.367188 26.066406 L 71.925781 26.066406 L 72.785156 23.597656 L 64.507812 23.597656 L 65.367188 26.046875 Z M 67.011719 30.800781 L 70.28125 30.800781 L 71.140625 28.3125 L 66.1875 28.3125 L 67.046875 30.800781 Z M 68.65625 35.515625 L 69.496094 33.046875 L 67.796875 33.046875 Z M 19.621094 35.515625 L 37.671875 35.515625 C 40.011719 35.519531 42.265625 34.640625 43.992188 33.046875 L 19.621094 33.046875 Z M 38.785156 23.597656 L 38.785156 26.046875 L 47.023438 26.046875 C 47.023438 25.214844 46.917969 24.386719 46.714844 23.578125 Z M 24.515625 26.046875 L 31.824219 26.046875 L 31.824219 23.597656 L 24.515625 23.597656 Z M 38.785156 11.917969 L 46.714844 11.917969 C 46.917969 11.117188 47.023438 10.292969 47.023438 9.46875 L 38.785156 9.46875 L 38.785156 11.9375 Z M 24.515625 11.917969 L 31.824219 11.917969 L 31.824219 9.46875 L 24.515625 9.46875 L 24.515625 11.9375 Z M 37.671875 0 L 19.621094 0 L 19.621094 2.46875 L 43.992188 2.46875 C 42.265625 0.878906 40.011719 0 37.671875 0 Z M 45.78125 4.714844 L 19.621094 4.714844 L 19.621094 7.203125 L 46.769531 7.203125 C 46.554688 6.332031 46.222656 5.496094 45.78125 4.714844 Z M 24.515625 14.164062 L 24.515625 16.632812 L 43.738281 16.632812 C 44.546875 15.929688 45.238281 15.097656 45.78125 14.164062 Z M 43.738281 18.882812 L 24.515625 18.882812 L 24.515625 21.351562 L 45.78125 21.351562 C 45.238281 20.421875 44.546875 19.585938 43.738281 18.882812 Z M 19.621094 30.800781 L 45.78125 30.800781 C 46.222656 30.019531 46.554688 29.183594 46.769531 28.3125 L 19.621094 28.3125 Z M 0 2.46875 L 17.171875 2.46875 L 17.171875 0 L 0 0 Z M 0 7.203125 L 17.171875 7.203125 L 17.171875 4.714844 L 0 4.714844 Z M 12.257812 9.46875 L 4.949219 9.46875 L 4.949219 11.9375 L 12.257812 11.9375 Z M 4.949219 16.652344 L 12.257812 16.652344 L 12.257812 14.164062 L 4.949219 14.164062 Z M 4.949219 21.367188 L 12.257812 21.367188 L 12.257812 18.882812 L 4.949219 18.882812 Z M 4.949219 26.085938 L 12.257812 26.085938 L 12.257812 23.597656 L 4.949219 23.597656 Z M 0 30.800781 L 17.171875 30.800781 L 17.171875 28.3125 L 0 28.3125 Z M 0 33.046875 L 17.171875 33.046875 L 17.171875 35.515625 L 0 35.515625 Z M 92.84375 33.636719 C 93.007812 33.636719 93.082031 33.636719 93.082031 33.414062 L 93.082031 33.285156 C 93.082031 33.140625 93.082031 33.066406 92.84375 33.066406 L 92.496094 33.066406 L 92.496094 33.636719 Z M 92.496094 34.667969 L 92.023438 34.667969 L 92.023438 32.699219 L 92.917969 32.699219 C 93.113281 32.660156 93.3125 32.726562 93.449219 32.871094 C 93.585938 33.015625 93.640625 33.222656 93.59375 33.414062 C 93.613281 33.671875 93.464844 33.910156 93.226562 34.003906 L 93.683594 34.761719 L 93.15625 34.761719 L 92.789062 34.078125 L 92.496094 34.078125 L 92.496094 34.761719 Z M 94.214844 33.785156 L 94.214844 33.542969 C 94.132812 32.808594 93.515625 32.253906 92.78125 32.253906 C 92.046875 32.253906 91.429688 32.808594 91.347656 33.542969 L 91.347656 33.785156 C 91.429688 34.519531 92.046875 35.074219 92.78125 35.074219 C 93.515625 35.074219 94.132812 34.519531 94.214844 33.785156 Z M 90.90625 33.671875 C 90.957031 32.667969 91.796875 31.890625 92.792969 31.925781 C 93.789062 31.957031 94.574219 32.789062 94.558594 33.796875 C 94.542969 34.800781 93.730469 35.605469 92.734375 35.609375 C 92.234375 35.609375 91.753906 35.402344 91.410156 35.035156 C 91.0625 34.671875 90.882812 34.179688 90.90625 33.671875 Z M 90.90625 33.671875 "/>
</g>
</svg>
