<svg id="Layer_1" data-name="Layer 1" xmlns="http://www.w3.org/2000/svg" width="51.8" height="19.33" viewBox="0 0 51.8 19.33"><defs><style>.cls-1{fill:#426ab3;}</style></defs><path class="cls-1" d="M38.76,9.2,38.3,7.86H30.61V9.2Zm.9,2.57-.47-1.35H30.61v1.35Zm5.71,15.37h6.71V25.8H45.37v1.34Zm0-2.56h6.71V23.23H45.37v1.35Zm0-2.57h4V20.67h-4V22Zm4-3.9h-4v1.34h4V18.11Zm-4-1.22h4V15.55H41.73l-.38,1.08L41,15.55H33.3v1.34h4V15.66l.44,1.23h7.18l.43-1.23v1.23Zm4-3.9H42.62l-.47,1.34H49.4V13ZM33.3,19.45h4V18.11h-4v1.34Zm0,2.56h4V20.67h-4V22Zm-2.69,2.57h6.71V23.23H30.61v1.35Zm0,2.56h6.71V25.8H30.61v1.34ZM44.4,7.86,43.93,9.2h8.15V7.86ZM43,11.77h9V10.42H43.51L43,11.77ZM33.3,14.33h7.25L40.08,13H33.3v1.34Zm5.35,5.12H44l.47-1.34H38.18l.47,1.34Zm.9,2.56h3.59l.47-1.34H39.08L39.55,22Zm.9,2.57h1.79l.47-1.35H40l.47,1.35Zm.9,2.56.46-1.34h-.93l.47,1.34Zm-26.84,0h9.88a5.11,5.11,0,0,0,3.46-1.34H14.51v1.34ZM25,20.67V22h4.51a5.41,5.41,0,0,0-.17-1.34ZM17.19,22h4V20.67h-4V22ZM25,14.33h4.34A5.41,5.41,0,0,0,29.51,13H25v1.34Zm-7.81,0h4V13h-4v1.34Zm7.2-6.47H14.51V9.2H27.85a5.13,5.13,0,0,0-3.46-1.34Zm4.44,2.56H14.51v1.35H29.37a5.3,5.3,0,0,0-.54-1.35ZM17.19,15.55v1.34H27.71a5.36,5.36,0,0,0,1.12-1.34Zm10.52,2.56H17.19v1.34H28.83a5.36,5.36,0,0,0-1.12-1.34Zm-13.2,6.47H28.83a5.3,5.3,0,0,0,.54-1.35H14.51v1.35ZM3.77,9.2h9.4V7.86H3.77V9.2Zm0,2.57h9.4V10.42H3.77v1.35ZM10.48,13h-4v1.34h4V13Zm-4,3.9h4V15.55h-4v1.34Zm0,2.56h4V18.11h-4v1.34Zm0,2.56h4V20.67h-4V22ZM3.77,24.58h9.4V23.23H3.77v1.35Zm0,1.22h9.4v1.34H3.77V25.8Zm50.82.32c.09,0,.13,0,.13-.12v-.07c0-.08,0-.12-.13-.12H54.4v.31Zm-.19.56h-.26V25.61h.49A.32.32,0,0,1,55,26a.32.32,0,0,1-.2.32l.25.41h-.29l-.2-.37H54.4v.37Zm.94-.48v-.13a.79.79,0,0,0-1.57,0v.13a.79.79,0,0,0,1.57,0Zm-1.81-.06a1,1,0,1,1,1,1.05,1,1,0,0,1-1-1.05Z" transform="translate(-3.77 -7.86)"/></svg>