<svg id="Layer_1" data-name="Layer 1" xmlns="http://www.w3.org/2000/svg" width="1500" height="850" viewBox="0 0 1500 850"><defs><style>.cls-1{fill:#1a1a1a;}</style></defs><rect id="Rectangle" class="cls-1" width="1500" height="850"/><path d="M1289.73,551.31c1.2,0,1.88-.52,1.88-1.65v-1.13c0-1.13-.68-1.66-1.88-1.66h-2.87v4.44Zm-2.87,8.28H1283V543.86h7.15c3.53,0,5.34,2.11,5.34,5,0,2.48-1.13,4.06-2.86,4.74l3.54,6H1292l-2.93-5.42h-2.19v5.42Zm13.78-7v-2a11.52,11.52,0,0,0-23,0v2a11.52,11.52,0,0,0,23,0Zm-26.57-1a15.06,15.06,0,1,1,30.11,0c0,8.81-6.7,15.51-15.06,15.51s-15-6.7-15-15.51ZM1057.22,302.93l-6.86-19.71H937.48v19.71Zm13.08,37.62-6.85-19.71h-126v19.71Zm84,225.76h98.54V546.6h-98.54v19.71Zm0-37.62h98.54V509h-98.54v19.71Zm0-37.63h59.13V471.35h-59.13v19.71Zm59.13-57.34h-59.13v19.71h59.13V433.72Zm-59.13-17.91h59.13V396.1H1100.7L1095.16,412l-5.54-15.93H976.9v19.71H1036V397.69l6.36,18.12h105.54l6.36-18.11v18.11Zm59.13-57.34h-99.64l-6.85,19.71h106.49V358.47Zm-236.52,95H1036V433.72H976.9v19.71Zm0,37.63H1036V471.35H976.9v19.71Zm-39.42,37.63H1036V509H937.48v19.71Zm0,37.62H1036V546.6H937.48v19.71ZM1140,283.22l-6.85,19.71h119.73V283.22ZM1120,340.55h132.82V320.84h-126L1120,340.55ZM976.9,378.18h106.49l-6.86-19.71H976.9v19.71Zm78.7,75.25h79.12l6.92-19.71h-93l6.92,19.71Zm13.21,37.63h52.7l6.92-19.71h-66.54l6.92,19.71ZM1082,528.69h26.28l6.92-19.71H1075.1l6.92,19.71Zm13.14,37.62L1102,546.6h-13.7l6.85,19.71Zm-394.19,0H846.1a74.7,74.7,0,0,0,50.77-19.71H701v19.71Zm154.09-95v19.71h66.3a75.42,75.42,0,0,0-2.64-19.71ZM740.39,491.06h59.13V471.35H740.39v19.71ZM855.06,378.18h63.66a75.42,75.42,0,0,0,2.64-19.71h-66.3v19.71Zm-114.67,0h59.13V358.47H740.39v19.71Zm105.71-95H701v19.71h195.9a75,75,0,0,0-50.77-19.71Zm65.16,37.62H701v19.71H919.19a74.43,74.43,0,0,0-7.93-19.71ZM740.39,396.1v19.71H894.8a75.54,75.54,0,0,0,16.44-19.71ZM894.8,433.72H740.39v19.71H911.24a75.54,75.54,0,0,0-16.44-19.71ZM701,528.69H911.26A74.43,74.43,0,0,0,919.19,509H701v19.71ZM543.3,302.93h138V283.22h-138v19.71Zm0,37.62h138V320.84h-138v19.71Zm98.54,17.92H582.71v19.71h59.13V358.47Zm-59.13,57.34h59.13V396.1H582.71v19.71Zm0,37.62h59.13V433.72H582.71v19.71Zm0,37.63h59.13V471.35H582.71v19.71ZM543.3,528.69h138V509h-138v19.71Zm0,17.91h138v19.71h-138V546.6Z"/></svg>