<?xml version="1.0" encoding="utf-8"?>
<!-- Generator: Adobe Illustrator 21.1.0, SVG Export Plug-In . SVG Version: 6.00 Build 0)  -->
<svg version="1.1" id="Layer_1" xmlns="http://www.w3.org/2000/svg" xmlns:xlink="http://www.w3.org/1999/xlink" x="0px" y="0px"
	 viewBox="0 0 323.5 11" style="enable-background:new 0 0 323.5 11;" xml:space="preserve">
<style type="text/css">
	.st0{fill:#FFFFFF;}
</style>
<path class="st0" d="M5.7,10.8L4,7.2H2.8v3.5H0V0.3h4.7c0.6,0,1.2,0.1,1.7,0.2s0.9,0.3,1.3,0.6c0.3,0.2,0.6,0.6,0.8,1s0.3,1,0.3,1.6
	c0,0.8-0.2,1.4-0.5,1.9C7.9,6.1,7.5,6.5,6.9,6.8l2.1,4H5.7z M5.6,3c-0.2-0.2-0.5-0.3-1-0.3H2.8V5h1.7c0.5,0,0.8-0.1,1-0.3
	c0.2-0.2,0.3-0.5,0.3-0.9C5.9,3.4,5.8,3.2,5.6,3z M10.7,10.8V0.3h8v2.4h-5.1v1.4h3.1v2.4h-3.1v1.8h5.3v2.4L10.7,10.8L10.7,10.8z
	 M29.4,7.9c-0.2,0.7-0.6,1.2-1.1,1.6s-1.1,0.7-1.8,0.9c-0.7,0.2-1.5,0.3-2.4,0.3h-3.4V0.3h3.7c0.8,0,1.6,0.1,2.2,0.3
	c0.7,0.2,1.2,0.5,1.7,0.9s0.8,0.9,1.1,1.6c0.3,0.7,0.4,1.5,0.4,2.5C29.7,6.4,29.6,7.3,29.4,7.9z M26.6,4.3c-0.1-0.3-0.2-0.6-0.4-0.9
	C26,3.2,25.8,3,25.5,2.9s-0.7-0.2-1.1-0.2h-0.7v5.5h0.6c0.5,0,0.8,0,1.2-0.1C25.7,8,26,7.9,26.2,7.7c0.2-0.2,0.4-0.5,0.4-0.9
	c0.1-0.4,0.1-0.8,0.1-1.3C26.8,5,26.7,4.6,26.6,4.3z M42.1,10.8V6.6h-3.3v4.1h-3V0.3h3v3.8h3.3V0.3h3v10.5H42.1z M53.9,10.8L53.3,9
	h-3.1l-0.6,1.8h-3.1l3.8-10.5h2.9L57,10.8H53.9z M52.4,5.9c-0.1-0.3-0.2-0.6-0.2-0.9c-0.1-0.2-0.1-0.5-0.2-0.7
	c0-0.1-0.1-0.3-0.1-0.5s-0.1-0.3-0.1-0.5c0,0.2-0.1,0.4-0.1,0.5c0,0.2-0.1,0.4-0.1,0.6c-0.1,0.2-0.1,0.4-0.2,0.7
	c-0.1,0.2-0.1,0.5-0.2,0.9L51,6.7h1.7L52.4,5.9z M62.5,2.8v7.9h-2.9V2.8h-2.9V0.3h8.8v2.5H62.5z M68.9,1.7c-0.1,0.1-0.1,0.2-0.2,0.3
	s-0.2,0.2-0.3,0.2c-0.1,0.1-0.3,0.1-0.4,0.1s-0.3,0-0.4-0.1S67.4,2.1,67.3,2c-0.2,0-0.3-0.1-0.4-0.3c-0.1-0.1-0.1-0.3-0.1-0.4
	s0-0.3,0.1-0.4C67,0.8,67,0.7,67.1,0.6s0.2-0.2,0.3-0.2c0.1-0.1,0.3-0.1,0.4-0.1c0.2,0,0.3,0,0.4,0.1s0.2,0.1,0.3,0.2
	c0.1,0.1,0.2,0.2,0.2,0.3C68.9,1,69,1.2,69,1.3C69,1.5,68.9,1.6,68.9,1.7z M68.7,1c0-0.1-0.1-0.2-0.2-0.3s-0.2-0.1-0.3-0.2
	c-0.1,0-0.2-0.1-0.3-0.1c-0.1,0-0.2,0-0.3,0.1c-0.1,0-0.2,0.1-0.3,0.2c-0.1,0.1-0.1,0.2-0.2,0.3C67,1.1,67,1.2,67,1.3
	c0,0.1,0,0.2,0.1,0.3c0,0.1,0.1,0.2,0.2,0.3C67.4,2,67.5,2,67.6,2.1c0.1,0,0.2,0.1,0.3,0.1c0.1,0,0.2,0,0.3-0.1
	c0.1,0,0.2-0.1,0.3-0.2c0.1-0.1,0.1-0.2,0.2-0.3c0-0.1,0.1-0.2,0.1-0.3S68.8,1.1,68.7,1z M68.3,1.3c0,0.1-0.1,0.1-0.2,0.1l0.2,0.5
	h-0.2l-0.2-0.4h-0.2v0.4h-0.2V0.7H68h0.1c0,0,0.1,0,0.1,0.1l0.1,0.1c0,0,0,0.1,0,0.2C68.4,1.2,68.4,1.2,68.3,1.3z M68.1,1L68.1,1
	h-0.4v0.3H68c0.1,0,0.1,0,0.1,0l0.1-0.1C68.2,1,68.2,1,68.1,1z"/>
<g>
	<path class="st0" d="M72.6,0.2h4.6c2.7,0,3.6,1.7,3.6,3.4c0,1.5-1,3.4-3.6,3.4h-2.5v3.9h-2.1V0.2z M78.7,3.5c0-0.6-0.3-1.4-1.4-1.4
		h-2.6V5h2.6C78.3,5,78.7,4.2,78.7,3.5z"/>
	<path class="st0" d="M82.4,0.2h4.9c2.7,0,3.6,1.6,3.6,3.3c0,1.2-0.7,2.6-2.1,3.1l2.1,4.2h-2.3l-2-4h-2.1v4h-2.1V0.2z M87.4,4.9
		c1,0,1.4-0.7,1.4-1.4c0-0.7-0.3-1.4-1.4-1.4h-2.9v2.8H87.4z"/>
	<path class="st0" d="M92.6,5.5c0-2.6,1.3-5.5,4.7-5.5c3.4,0,4.7,2.9,4.7,5.5c0,2.6-1.2,5.5-4.7,5.5C93.8,11,92.6,8.1,92.6,5.5z
		 M99.8,5.5c0-1.6-0.6-3.5-2.6-3.5c-1.9,0-2.6,2-2.6,3.5c0,1.6,0.7,3.5,2.6,3.5C99.1,9,99.8,7,99.8,5.5z"/>
	<path class="st0" d="M103.6,5.5c0-2.4,1.2-5.5,4.5-5.5c2,0,3.3,1.2,3.8,2.4l-1.8,0.8c-0.5-0.8-1-1.3-2-1.3c-1.8,0-2.3,1.9-2.3,3.5
		c0,1.6,0.7,3.5,2.3,3.5c0.9,0,1.4-0.6,1.9-1.4l1.9,0.7c-0.7,1.5-1.9,2.6-3.8,2.6C104.8,11,103.6,8.1,103.6,5.5z"/>
	<path class="st0" d="M113.7,0.2h7.3v1.9h-5.2v2.2h3.1v1.9h-3.1v2.6h5.5v1.9h-7.6V0.2z"/>
	<path class="st0" d="M122.7,8.1l1.9-0.7c0.5,1,1.3,1.7,2.3,1.7c1,0,1.7-0.4,1.7-1.3c0-0.9-1-1.2-2.2-1.6c-1.5-0.5-3.3-1.1-3.3-3.2
		c0-1.6,1.3-2.9,3.6-2.9c1.9,0,3.1,1.1,3.5,2.5l-1.8,0.6c-0.3-0.6-0.8-1.1-1.8-1.1c-0.9,0-1.4,0.4-1.4,1c0,0.7,0.9,1,1.9,1.3
		c1.6,0.5,3.6,1.2,3.6,3.5c0,2.1-1.7,3.2-3.8,3.2C124.8,11,123.3,9.9,122.7,8.1z"/>
	<path class="st0" d="M132.2,8.1l1.9-0.7c0.5,1,1.3,1.7,2.3,1.7c1,0,1.7-0.4,1.7-1.3c0-0.9-1-1.2-2.2-1.6c-1.5-0.5-3.3-1.1-3.3-3.2
		c0-1.6,1.3-2.9,3.6-2.9c1.9,0,3.1,1.1,3.5,2.5l-1.8,0.6c-0.3-0.6-0.8-1.1-1.8-1.1c-0.9,0-1.4,0.4-1.4,1c0,0.7,0.9,1,1.9,1.3
		c1.6,0.5,3.6,1.2,3.6,3.5c0,2.1-1.7,3.2-3.8,3.2C134.4,11,132.8,9.9,132.2,8.1z"/>
	<path class="st0" d="M152.7,8.6h-4.1l-0.8,2.2h-2.2l4.1-10.6h2l4.1,10.6h-2.2L152.7,8.6z M151,4c-0.1-0.3-0.3-0.7-0.3-1
		c-0.1,0.3-0.2,0.7-0.3,1l-1,2.8h2.8L151,4z"/>
	<path class="st0" d="M156.9,6.7V0.2h2.1v6.6c0,1.8,0.8,2.3,2.2,2.3c1.4,0,2.2-0.5,2.2-2.3V0.2h2.1v6.6c0,3.2-2.1,4.3-4.3,4.3
		C159,11,156.9,10,156.9,6.7z"/>
	<path class="st0" d="M172.2,10.8h-2.1V2.2h-3v-2h8.1v2h-3V10.8z"/>
	<path class="st0" d="M176.4,5.5c0-2.6,1.3-5.5,4.7-5.5c3.4,0,4.7,2.9,4.7,5.5c0,2.6-1.2,5.5-4.7,5.5C177.7,11,176.4,8.1,176.4,5.5z
		 M183.7,5.5c0-1.6-0.6-3.5-2.6-3.5c-1.9,0-2.6,2-2.6,3.5c0,1.6,0.7,3.5,2.6,3.5C183,9,183.7,7,183.7,5.5z"/>
	<path class="st0" d="M195.8,10.8V5.3c0-0.2,0-0.6,0-0.8c-0.1,0.3-0.2,0.6-0.3,0.8l-2.6,5.7l-2.6-5.7c-0.1-0.2-0.2-0.5-0.3-0.8
		c0,0.2,0,0.6,0,0.8v5.5h-2.1V0.2h2.1l2.6,5.9c0.1,0.2,0.2,0.5,0.3,0.7c0.1-0.2,0.2-0.5,0.3-0.7l2.7-5.9h2v10.6H195.8z"/>
	<path class="st0" d="M206.7,8.6h-4.1l-0.8,2.2h-2.2l4.1-10.6h2l4.1,10.6h-2.2L206.7,8.6z M204.9,4c-0.1-0.3-0.3-0.7-0.3-1
		c-0.1,0.3-0.2,0.7-0.3,1l-1,2.8h2.8L204.9,4z"/>
	<path class="st0" d="M214.6,10.8h-2.1V2.2h-3v-2h8.1v2h-3V10.8z"/>
	<path class="st0" d="M219.4,0.2h2.1v10.6h-2.1V0.2z"/>
	<path class="st0" d="M223.6,5.5c0-2.6,1.3-5.5,4.7-5.5c3.4,0,4.7,2.9,4.7,5.5c0,2.6-1.2,5.5-4.7,5.5C224.9,11,223.6,8.1,223.6,5.5z
		 M230.9,5.5c0-1.6-0.6-3.5-2.6-3.5c-1.9,0-2.6,2-2.6,3.5c0,1.6,0.7,3.5,2.6,3.5C230.2,9,230.9,7,230.9,5.5z"/>
	<path class="st0" d="M241.8,10.8l-4.2-6.2c-0.1-0.2-0.3-0.5-0.4-0.8c0,0.3,0,0.6,0,0.8v6.2h-2V0.2h1.9l4.1,6.1
		c0.1,0.2,0.3,0.5,0.4,0.8c0-0.2,0-0.6,0-0.8V0.2h2v10.6H241.8z"/>
	<path class="st0" d="M257.9,10.8V5.3c0-0.2,0-0.6,0-0.8c-0.1,0.3-0.2,0.6-0.3,0.8l-2.6,5.7l-2.6-5.7c-0.1-0.2-0.2-0.5-0.3-0.8
		c0,0.2,0,0.6,0,0.8v5.5h-2.1V0.2h2.1l2.6,5.9c0.1,0.2,0.2,0.5,0.3,0.7c0.1-0.2,0.2-0.5,0.3-0.7l2.7-5.9h2v10.6H257.9z"/>
	<path class="st0" d="M268.8,8.6h-4.1l-0.8,2.2h-2.2l4.1-10.6h2l4.1,10.6h-2.2L268.8,8.6z M267.1,4c-0.1-0.3-0.3-0.7-0.3-1
		c-0.1,0.3-0.2,0.7-0.3,1l-1,2.8h2.8L267.1,4z"/>
	<path class="st0" d="M280.2,10.8L276,4.6c-0.1-0.2-0.3-0.5-0.4-0.8c0,0.3,0,0.6,0,0.8v6.2h-2V0.2h1.9l4.1,6.1
		c0.1,0.2,0.3,0.5,0.4,0.8c0-0.2,0-0.6,0-0.8V0.2h2v10.6H280.2z"/>
	<path class="st0" d="M290.9,8.6h-4.1l-0.8,2.2h-2.2l4.1-10.6h2l4.1,10.6h-2.2L290.9,8.6z M289.2,4c-0.1-0.3-0.3-0.7-0.3-1
		c-0.1,0.3-0.2,0.7-0.3,1l-1,2.8h2.8L289.2,4z"/>
	<path class="st0" d="M294.7,5.5c0-2.6,1.5-5.5,4.7-5.5c2.1,0,3.1,1.1,3.8,2.3l-1.8,1c-0.5-0.7-1.1-1.3-2-1.3c-2,0-2.6,2-2.6,3.5
		c0,1.8,0.7,3.5,2.6,3.5c1,0,1.9-0.8,1.9-1.7V7.2h-1.8V5.2h3.9v1.6c0,2.7-1.7,4.2-4,4.2C296.1,11,294.7,8.3,294.7,5.5z"/>
	<path class="st0" d="M305.5,0.2h7.3v1.9h-5.2v2.2h3.1v1.9h-3.1v2.6h5.5v1.9h-7.6V0.2z"/>
	<path class="st0" d="M315,0.2h4.9c2.7,0,3.6,1.6,3.6,3.3c0,1.2-0.7,2.6-2.1,3.1l2.1,4.2h-2.3l-2-4h-2.1v4H315V0.2z M320,4.9
		c1,0,1.4-0.7,1.4-1.4c0-0.7-0.3-1.4-1.4-1.4h-2.9v2.8H320z"/>
</g>
</svg>
