<?xml version="1.0" encoding="utf-8"?>
<!-- Generator: Adobe Illustrator 19.2.0, SVG Export Plug-In . SVG Version: 6.00 Build 0)  -->
<svg version="1.1" id="Layer_1" xmlns="http://www.w3.org/2000/svg" xmlns:xlink="http://www.w3.org/1999/xlink" x="0px" y="0px"
	 viewBox="0 0 289.4 18" style="enable-background:new 0 0 289.4 18;" xml:space="preserve">
<style type="text/css">
	.st0{fill:#FFFFFF;}
</style>
<g>
	<g>
		<path class="st0" d="M134.5,13.7c-0.3,0.9-0.8,1.7-1.4,2.3c-0.6,0.6-1.4,1.1-2.3,1.5c-0.9,0.3-2,0.5-3.2,0.5c-1.2,0-2.2-0.1-3-0.4
			c-0.9-0.3-1.6-0.7-2.2-1.2c-0.6-0.5-1.1-1.2-1.5-1.9c-0.4-0.8-0.7-1.6-0.9-2.5l4.7-1.2c0.3,1,0.7,1.7,1.1,2.3
			c0.4,0.5,1,0.8,1.9,0.8c0.8,0,1.4-0.2,1.7-0.7c0.4-0.5,0.6-1.2,0.6-2V0.3h4.9v10.4C135,11.8,134.8,12.8,134.5,13.7z"/>
		<path class="st0" d="M151.8,16.3c-1.1,1-2.7,1.5-4.9,1.5h-8.4V0.3h8.4c2.2,0,3.7,0.4,4.7,1.2c1,0.8,1.4,1.9,1.4,3.4
			c0,1-0.2,1.7-0.6,2.2c-0.4,0.5-0.9,0.9-1.5,1.2c0.8,0.3,1.4,0.8,1.9,1.4c0.4,0.6,0.6,1.4,0.6,2.4
			C153.4,13.9,152.8,15.3,151.8,16.3z M147.9,4.5c-0.2-0.3-0.6-0.4-1.2-0.4h-3.6v2.8h3.6c0.6,0,1-0.1,1.2-0.4c0.2-0.2,0.3-0.6,0.3-1
			C148.2,5.1,148.1,4.8,147.9,4.5z M148.2,11c-0.3-0.3-0.7-0.4-1.3-0.4h-3.8v3.4h3.8c0.6,0,1-0.2,1.3-0.5c0.3-0.3,0.4-0.7,0.4-1.2
			C148.6,11.7,148.5,11.3,148.2,11z"/>
		<path class="st0" d="M171,12.9c-0.4,1.1-1,2.1-1.7,2.8c-0.7,0.8-1.6,1.3-2.6,1.7c-1,0.4-2.1,0.6-3.3,0.6c-1.2,0-2.3-0.2-3.3-0.6
			c-1-0.4-1.8-1-2.6-1.7c-0.7-0.8-1.3-1.7-1.7-2.8c-0.4-1.1-0.6-2.4-0.6-3.9c0-1.4,0.2-2.7,0.6-3.9c0.4-1.1,1-2.1,1.7-2.8
			c0.7-0.8,1.6-1.3,2.6-1.7c1-0.4,2.1-0.6,3.3-0.6c1.2,0,2.3,0.2,3.3,0.6c1,0.4,1.8,1,2.5,1.7c0.7,0.8,1.3,1.7,1.7,2.8
			c0.4,1.1,0.6,2.4,0.6,3.9C171.6,10.4,171.4,11.7,171,12.9z M165.8,5.5c-0.5-0.8-1.3-1.2-2.3-1.2c-1,0-1.7,0.4-2.3,1.2
			c-0.5,0.8-0.8,2-0.8,3.6c0,1.6,0.3,2.8,0.8,3.6c0.5,0.8,1.3,1.2,2.3,1.2c1,0,1.7-0.4,2.3-1.2c0.5-0.8,0.8-2,0.8-3.6
			C166.6,7.5,166.3,6.3,165.8,5.5z"/>
		<path class="st0" d="M187.4,15c-0.4,0.7-0.9,1.3-1.5,1.7c-0.6,0.4-1.4,0.8-2.3,1c-0.9,0.2-1.9,0.3-2.9,0.3c-1.4,0-2.8-0.2-4.1-0.6
			c-1.3-0.4-2.4-0.9-3.3-1.5l2.3-3.8c0.3,0.2,0.7,0.4,1.1,0.6c0.4,0.2,0.9,0.4,1.3,0.6c0.5,0.2,0.9,0.3,1.4,0.4
			c0.5,0.1,0.9,0.2,1.3,0.2c0.9,0,1.5-0.1,1.8-0.3c0.3-0.2,0.5-0.5,0.5-0.9c0-0.2,0-0.3-0.1-0.4c-0.1-0.1-0.3-0.3-0.5-0.4
			c-0.2-0.1-0.5-0.3-0.9-0.4c-0.4-0.1-0.9-0.2-1.4-0.4c-1-0.2-2-0.5-2.7-0.8c-0.8-0.3-1.4-0.6-1.9-1.1c-0.5-0.4-0.9-0.9-1.2-1.5
			c-0.3-0.6-0.4-1.3-0.4-2.2c0-0.8,0.2-1.6,0.5-2.2c0.3-0.7,0.8-1.3,1.4-1.7c0.6-0.5,1.3-0.9,2.2-1.1c0.9-0.3,1.8-0.4,2.8-0.4
			c1.5,0,2.8,0.2,3.9,0.5c1.1,0.4,2.1,0.9,3.1,1.5l-2.3,3.8c-0.8-0.5-1.6-0.9-2.3-1.2c-0.8-0.3-1.6-0.4-2.5-0.4
			c-0.7,0-1.2,0.1-1.4,0.3c-0.2,0.2-0.3,0.5-0.3,0.8c0,0.2,0,0.3,0.1,0.4c0.1,0.1,0.2,0.2,0.5,0.3c0.2,0.1,0.5,0.2,0.9,0.3
			c0.4,0.1,0.8,0.2,1.4,0.4c1.1,0.3,2.1,0.6,2.8,0.9c0.8,0.3,1.5,0.7,2,1.1c0.5,0.4,0.9,1,1.1,1.6c0.2,0.6,0.4,1.3,0.4,2.1
			C187.9,13.4,187.8,14.2,187.4,15z"/>
		<path class="st0" d="M204,15c-0.4,0.7-0.9,1.3-1.5,1.7c-0.6,0.4-1.4,0.8-2.3,1c-0.9,0.2-1.8,0.3-2.9,0.3c-1.4,0-2.8-0.2-4.1-0.6
			c-1.3-0.4-2.4-0.9-3.3-1.5l2.4-3.8c0.3,0.2,0.7,0.4,1.1,0.6c0.4,0.2,0.9,0.4,1.3,0.6c0.5,0.2,0.9,0.3,1.4,0.4
			c0.5,0.1,0.9,0.2,1.3,0.2c0.9,0,1.5-0.1,1.8-0.3c0.3-0.2,0.5-0.5,0.5-0.9c0-0.2,0-0.3-0.1-0.4c-0.1-0.1-0.2-0.3-0.5-0.4
			c-0.2-0.1-0.5-0.3-0.9-0.4c-0.4-0.1-0.9-0.2-1.4-0.4c-1-0.2-2-0.5-2.7-0.8c-0.8-0.3-1.4-0.6-2-1.1c-0.5-0.4-0.9-0.9-1.2-1.5
			c-0.3-0.6-0.4-1.3-0.4-2.2c0-0.8,0.2-1.6,0.5-2.2c0.3-0.7,0.8-1.3,1.4-1.7c0.6-0.5,1.3-0.9,2.2-1.1c0.8-0.3,1.8-0.4,2.8-0.4
			c1.5,0,2.8,0.2,3.9,0.5c1.1,0.4,2.1,0.9,3.1,1.5L202,5.8c-0.8-0.5-1.6-0.9-2.4-1.2c-0.8-0.3-1.6-0.4-2.5-0.4
			c-0.7,0-1.2,0.1-1.4,0.3c-0.2,0.2-0.4,0.5-0.4,0.8c0,0.2,0.1,0.3,0.1,0.4c0.1,0.1,0.2,0.2,0.5,0.3c0.2,0.1,0.5,0.2,0.9,0.3
			c0.4,0.1,0.8,0.2,1.4,0.4c1.1,0.3,2,0.6,2.8,0.9c0.8,0.3,1.5,0.7,2,1.1c0.5,0.4,0.9,1,1.1,1.6c0.2,0.6,0.4,1.3,0.4,2.1
			C204.5,13.4,204.3,14.2,204,15z"/>
	</g>
	<g>
		<g>
			<path class="st0" d="M9.7,17.7l-2.8-5.9H5v5.9H0.2V0.3H8c1,0,1.9,0.1,2.8,0.3c0.8,0.2,1.6,0.5,2.1,1c0.6,0.4,1.1,1,1.4,1.8
				C14.6,4.1,14.8,5,14.8,6c0,1.3-0.3,2.4-0.8,3.2c-0.6,0.8-1.3,1.5-2.3,1.9l3.5,6.6H9.7z M9.5,4.8C9.2,4.4,8.6,4.3,7.9,4.3H5v3.8
				h2.8c0.8,0,1.4-0.2,1.7-0.5C9.8,7.2,10,6.7,10,6.1C10,5.6,9.8,5.1,9.5,4.8z"/>
		</g>
		<g>
			<path class="st0" d="M18,17.7V0.3h13.3v4h-8.5v2.3h5.1v4h-5.1v3h8.7v4H18z"/>
		</g>
		<g>
			<path class="st0" d="M49,13.1c-0.4,1.1-1,2-1.8,2.7c-0.8,0.7-1.8,1.2-2.9,1.5c-1.2,0.3-2.5,0.5-4.1,0.5h-5.6V0.3h6.1
				c1.4,0,2.6,0.1,3.7,0.4c1.1,0.3,2,0.8,2.8,1.4c0.8,0.7,1.4,1.5,1.8,2.6c0.4,1.1,0.6,2.5,0.6,4.1C49.6,10.6,49.4,11.9,49,13.1z
				 M44.4,6.9c-0.1-0.6-0.4-1.1-0.7-1.4c-0.3-0.4-0.7-0.6-1.2-0.8c-0.5-0.2-1.1-0.3-1.9-0.3h-1.2v9.1h1c0.7,0,1.4-0.1,1.9-0.2
				c0.5-0.2,1-0.4,1.3-0.8c0.3-0.4,0.6-0.8,0.7-1.4c0.1-0.6,0.2-1.3,0.2-2.2C44.6,8.2,44.6,7.5,44.4,6.9z"/>
		</g>
		<g>
			<path class="st0" d="M70,17.7v-6.8h-5.4v6.8h-4.9V0.3h4.9v6.3H70V0.3h4.9v17.4H70z"/>
		</g>
		<g>
			<path class="st0" d="M89.6,17.7l-0.9-3h-5.2l-0.9,3h-5.2l6.3-17.4h4.9l6.3,17.4H89.6z M87.2,9.7c-0.1-0.6-0.3-1.1-0.4-1.5
				c-0.1-0.4-0.2-0.8-0.3-1.1c-0.1-0.3-0.2-0.6-0.2-0.9c-0.1-0.3-0.1-0.6-0.2-0.9C86,5.7,86,5.9,85.9,6.2c-0.1,0.3-0.1,0.6-0.2,0.9
				c-0.1,0.3-0.2,0.7-0.3,1.1c-0.1,0.4-0.3,0.9-0.4,1.4l-0.3,1.1h2.9L87.2,9.7z"/>
		</g>
		<g>
			<path class="st0" d="M103.9,4.5v13.2h-4.8V4.5h-4.9V0.3h14.5v4.2H103.9z"/>
		</g>
	</g>
	<g>
		<path class="st0" d="M114.4,2.8c-0.1,0.2-0.2,0.4-0.4,0.5c-0.2,0.2-0.3,0.3-0.5,0.4c-0.2,0.1-0.4,0.1-0.7,0.1
			c-0.3,0-0.5,0-0.7-0.1c-0.2-0.1-0.4-0.2-0.6-0.4c-0.2-0.2-0.3-0.3-0.4-0.5c-0.1-0.2-0.1-0.4-0.1-0.7c0-0.2,0-0.5,0.1-0.7
			c0.1-0.2,0.2-0.4,0.4-0.5c0.2-0.2,0.3-0.3,0.6-0.4c0.2-0.1,0.4-0.1,0.7-0.1c0.2,0,0.5,0,0.7,0.1c0.2,0.1,0.4,0.2,0.5,0.4
			c0.2,0.2,0.3,0.3,0.4,0.5c0.1,0.2,0.1,0.4,0.1,0.7C114.6,2.3,114.5,2.5,114.4,2.8z M114.2,1.5c-0.1-0.2-0.2-0.3-0.3-0.5
			c-0.1-0.1-0.3-0.2-0.5-0.3c-0.2-0.1-0.4-0.1-0.6-0.1c-0.2,0-0.4,0-0.6,0.1c-0.2,0.1-0.3,0.2-0.5,0.3c-0.1,0.1-0.2,0.3-0.3,0.5
			c-0.1,0.2-0.1,0.4-0.1,0.6c0,0.2,0,0.4,0.1,0.6c0.1,0.2,0.2,0.3,0.3,0.5c0.1,0.1,0.3,0.2,0.5,0.3c0.2,0.1,0.4,0.1,0.6,0.1
			c0.2,0,0.4,0,0.6-0.1c0.2-0.1,0.3-0.2,0.5-0.3c0.1-0.1,0.2-0.3,0.3-0.5c0.1-0.2,0.1-0.4,0.1-0.6C114.3,1.9,114.2,1.7,114.2,1.5z
			 M113.5,2c-0.1,0.1-0.2,0.2-0.3,0.2l0.4,0.8h-0.4l-0.4-0.7h-0.4V3h-0.3V1.1h0.8c0.1,0,0.2,0,0.2,0c0.1,0,0.1,0.1,0.2,0.1
			c0.1,0,0.1,0.1,0.1,0.2c0,0.1,0,0.2,0,0.3C113.6,1.8,113.6,1.9,113.5,2z M113.2,1.5c-0.1,0-0.1-0.1-0.2-0.1h-0.5v0.5h0.5
			c0.1,0,0.2,0,0.2-0.1c0.1,0,0.1-0.1,0.1-0.2C113.3,1.6,113.2,1.5,113.2,1.5z"/>
	</g>
	<g>
		<path class="st0" d="M211.1,2.8c-0.1,0.2-0.2,0.4-0.4,0.5c-0.2,0.2-0.3,0.3-0.6,0.4c-0.2,0.1-0.4,0.1-0.7,0.1
			c-0.3,0-0.5,0-0.7-0.1c-0.2-0.1-0.4-0.2-0.6-0.4c-0.2-0.2-0.3-0.3-0.4-0.5c-0.1-0.2-0.1-0.4-0.1-0.7c0-0.2,0-0.5,0.1-0.7
			c0.1-0.2,0.2-0.4,0.4-0.5c0.2-0.2,0.3-0.3,0.6-0.4c0.2-0.1,0.4-0.1,0.7-0.1c0.2,0,0.5,0,0.7,0.1c0.2,0.1,0.4,0.2,0.6,0.4
			c0.2,0.2,0.3,0.3,0.4,0.5c0.1,0.2,0.1,0.4,0.1,0.7C211.2,2.3,211.2,2.5,211.1,2.8z M210.9,1.5c-0.1-0.2-0.2-0.3-0.3-0.5
			c-0.1-0.1-0.3-0.2-0.5-0.3c-0.2-0.1-0.4-0.1-0.6-0.1c-0.2,0-0.4,0-0.6,0.1c-0.2,0.1-0.3,0.2-0.5,0.3c-0.1,0.1-0.2,0.3-0.3,0.5
			c-0.1,0.2-0.1,0.4-0.1,0.6c0,0.2,0,0.4,0.1,0.6c0.1,0.2,0.2,0.3,0.3,0.5c0.1,0.1,0.3,0.2,0.5,0.3c0.2,0.1,0.4,0.1,0.6,0.1
			c0.2,0,0.4,0,0.6-0.1c0.2-0.1,0.3-0.2,0.5-0.3c0.1-0.1,0.2-0.3,0.3-0.5c0.1-0.2,0.1-0.4,0.1-0.6C211,1.9,210.9,1.7,210.9,1.5z
			 M210.2,2c-0.1,0.1-0.2,0.2-0.3,0.2l0.4,0.8h-0.4l-0.4-0.7h-0.4V3h-0.3V1.1h0.8c0.1,0,0.2,0,0.2,0s0.1,0.1,0.2,0.1
			c0.1,0,0.1,0.1,0.1,0.2c0,0.1,0.1,0.2,0.1,0.3C210.3,1.8,210.3,1.9,210.2,2z M209.9,1.5c-0.1,0-0.1-0.1-0.2-0.1h-0.5v0.5h0.5
			c0.1,0,0.2,0,0.2-0.1c0.1,0,0.1-0.1,0.1-0.2C210,1.6,209.9,1.5,209.9,1.5z"/>
	</g>
	<g>
		<path class="st0" d="M233.3,14.5c-0.3,0.7-0.7,1.3-1.3,1.8c-0.5,0.5-1.2,0.8-2,1.1c-0.8,0.2-1.6,0.4-2.6,0.4h-8V0.2h8.1
			c1.7,0,3.1,0.4,4.1,1.2c1,0.8,1.5,1.9,1.5,3.4c0,0.8-0.2,1.4-0.5,2s-0.8,1.1-1.4,1.4c0.7,0.3,1.3,0.8,1.8,1.4
			c0.5,0.6,0.7,1.4,0.7,2.4C233.8,13,233.6,13.8,233.3,14.5z M229.1,3.8c-0.3-0.3-0.9-0.4-1.7-0.4H223v3.3h4.6
			c0.7,0,1.2-0.2,1.5-0.5c0.3-0.3,0.4-0.7,0.4-1.2C229.6,4.5,229.4,4.1,229.1,3.8z M227.7,9.8H223v4.5h4.7c0.9,0,1.5-0.2,1.9-0.6
			c0.4-0.4,0.6-1,0.6-1.7C230.2,10.6,229.3,9.8,227.7,9.8z"/>
		<path class="st0" d="M247.5,17.7l-3.1-6.3h-3.5v6.3h-3.5V0.2h8.2c0.8,0,1.6,0.1,2.3,0.3c0.7,0.2,1.4,0.6,1.9,1
			c0.6,0.5,1,1,1.3,1.7c0.3,0.7,0.5,1.5,0.5,2.4c0,1.3-0.3,2.4-0.8,3.2c-0.6,0.8-1.4,1.5-2.5,1.9l3.4,6.8H247.5z M247.3,4.1
			c-0.4-0.3-1.1-0.5-1.9-0.5h-4.6v4.5h4.6c1.7,0,2.5-0.8,2.5-2.3C248,5,247.8,4.4,247.3,4.1z"/>
		<path class="st0" d="M268.2,17.7v-6.4c0-0.2,0-0.5,0-0.9c0-0.4,0-0.7,0-1.1c0-0.4,0-0.7,0-1.1c0-0.3,0-0.6,0-0.8
			c-0.1,0.3-0.3,0.8-0.5,1.3c-0.2,0.6-0.5,1.1-0.7,1.6l-3.6,7.8l-3.6-7.8c-0.2-0.5-0.5-1-0.7-1.6c-0.2-0.6-0.4-1-0.5-1.3
			c0,0.2,0,0.4,0,0.8c0,0.3,0,0.7,0,1.1c0,0.4,0,0.8,0,1.1c0,0.4,0,0.7,0,0.9v6.4h-3.4V0.2h3.4l3.7,7.9c0.1,0.3,0.2,0.5,0.3,0.8
			c0.1,0.3,0.2,0.5,0.3,0.8c0.1,0.3,0.2,0.5,0.3,0.8c0.1,0.2,0.2,0.4,0.2,0.6c0.1-0.3,0.3-0.8,0.5-1.3c0.2-0.6,0.4-1.1,0.7-1.6
			l3.5-7.9h3.4v17.6H268.2z"/>
		<path class="st0" d="M288.7,14.7c-0.3,0.7-0.7,1.3-1.3,1.8c-0.6,0.5-1.3,0.9-2.1,1.1c-0.9,0.3-1.9,0.4-3.1,0.4
			c-1.5,0-2.8-0.3-4-0.9c-1.2-0.6-2.1-1.3-2.8-2.3l2.5-2.3c0.6,0.7,1.3,1.2,2.1,1.5c0.8,0.3,1.6,0.5,2.4,0.5c1.1,0,1.8-0.2,2.3-0.5
			c0.5-0.3,0.7-0.8,0.7-1.5c0-0.3,0-0.5-0.2-0.7c-0.1-0.2-0.3-0.4-0.6-0.6c-0.3-0.2-0.7-0.4-1.2-0.5c-0.5-0.2-1.2-0.3-2-0.5
			c-0.8-0.2-1.5-0.4-2.2-0.6c-0.7-0.3-1.3-0.6-1.7-1c-0.5-0.4-0.9-0.9-1.1-1.5C276.2,6.6,276,5.9,276,5c0-0.8,0.2-1.5,0.5-2.2
			c0.3-0.6,0.8-1.2,1.3-1.6c0.6-0.4,1.2-0.8,2-1c0.8-0.2,1.6-0.4,2.4-0.4c1.4,0,2.6,0.2,3.6,0.7s2,1.2,2.8,2l-2.5,2.5
			c-0.6-0.6-1.2-1-1.8-1.3c-0.6-0.3-1.4-0.5-2.2-0.5c-0.5,0-0.9,0-1.2,0.1c-0.3,0.1-0.6,0.2-0.8,0.4s-0.3,0.3-0.4,0.5
			c-0.1,0.2-0.1,0.4-0.1,0.6c0,0.3,0.1,0.5,0.2,0.7c0.1,0.2,0.3,0.4,0.6,0.5c0.3,0.2,0.6,0.3,1.1,0.4c0.5,0.1,1,0.3,1.7,0.4
			c0.7,0.2,1.4,0.4,2.1,0.6s1.3,0.5,1.9,0.9c0.6,0.4,1,0.9,1.4,1.5s0.5,1.4,0.5,2.4C289.1,13.2,288.9,14,288.7,14.7z"/>
	</g>
</g>
</svg>
