<?xml version="1.0" encoding="utf-8"?>
<!-- Generator: Adobe Illustrator 21.1.0, SVG Export Plug-In . SVG Version: 6.00 Build 0)  -->
<svg version="1.1" id="logo" xmlns="http://www.w3.org/2000/svg" xmlns:xlink="http://www.w3.org/1999/xlink" x="0px" y="0px"
	 viewBox="0 0 219.8 11" style="enable-background:new 0 0 219.8 11;" xml:space="preserve">
<style type="text/css">
	.st0{fill:#FFFFFF;}
</style>
<path id="_x3C_title_x3E_" class="st0" d="M5.8,10.8L4.1,7.2H2.9v3.6H0V0.2h4.7c2.5,0,4.2,0.9,4.2,3.5C9,5,8.2,6.3,7,6.8l2.1,4H5.8z
	 M4.7,2.6H2.9v2.3h1.7c0.9,0,1.3-0.4,1.3-1.2S5.6,2.6,4.7,2.6z M11.3,10.8V0.2h8.2v2.5h-5.2V4h3.2v2.5h-3.2v1.8h5.3v2.5H11.3z
	 M25.3,10.8h-3.4V0.2h3.7c3.3,0,5.4,1.3,5.4,5.2S29.1,10.8,25.3,10.8z M25.6,2.7h-0.7v5.6h0.6c1.8,0,2.5-0.7,2.5-2.8
	C28.1,3.5,27.4,2.7,25.6,2.7z M45.1,10.8V6.6h-3.3v4.2h-3V0.2h3V4h3.3V0.2h3v10.6H45.1z M57.6,10.8L57,8.9h-3.2l-0.6,1.9h-3.2
	L54,0.2h3l3.9,10.6H57.6z M56,5.9c-0.4-1.4-0.6-2-0.7-2.7C55.2,4,55,4.6,54.7,5.9l-0.2,0.7h1.8L56,5.9z M66.7,2.8v8.1h-3V2.8h-3V0.3
	h8.9v2.5H66.7z M72.3,2.8c-0.7,0-1.3-0.6-1.3-1.3c0,0,0,0,0-0.1c0.1-0.8,0.7-1.3,1.5-1.3c0.7,0.1,1.2,0.6,1.3,1.3
	C73.7,2.2,73.2,2.8,72.3,2.8C72.4,2.8,72.4,2.8,72.3,2.8z M72.3,0.3c-0.6,0-1.1,0.5-1.1,1.1c0,0,0,0,0,0.1c-0.1,0.6,0.4,1.2,1.1,1.2
	c0.6,0.1,1.2-0.4,1.2-1.1c0-0.1,0-0.1,0-0.2C73.5,0.9,73,0.4,72.3,0.3C72.3,0.4,72.3,0.4,72.3,0.3L72.3,0.3z M72.7,1.6L73,2.2h-0.3
	l-0.3-0.6h-0.3v0.6h-0.3V0.7h0.6c0.3,0,0.4,0.1,0.5,0.4v0.1C73,1.4,72.9,1.6,72.7,1.6L72.7,1.6z M72.5,1h-0.4v0.4h0.4
	c0.1,0,0.3-0.1,0.3-0.2S72.7,1,72.5,1L72.5,1z M83.7,10.8h-2.6V0.2h2.8c2.8,0,4.9,1.6,4.9,5.2C88.7,9.3,86.4,10.8,83.7,10.8z
	 M83.7,1.3h-1.5v8.5h1.6c2.3,0,3.7-1.2,3.7-4.3C87.5,2.8,86.2,1.3,83.7,1.3z M91,10.8V0.2h6.4v1.1h-5.2v3.3h3v1.1h-3v4h5.5v1.1
	L91,10.8z M103.3,11c-2.6,0-4.3-2.3-4.3-5.4s1.8-5.5,4.4-5.5c1.3-0.1,2.6,0.6,3.3,1.7l-0.9,0.7c-0.7-0.9-1.3-1.3-2.5-1.3
	c-1.8,0-3.1,1.8-3.1,4.4s1.3,4.4,3.2,4.4c1.1,0,2-0.5,2.7-1.4l0.8,0.7C106,10.4,104.7,11,103.3,11z M109.1,10.8V0.2h1.2v10.6H109.1z
	 M116.2,11c-1.3,0-2.6-0.5-3.5-1.5l0.8-0.9c0.8,0.8,1.8,1.3,2.8,1.3c1.4,0,2.3-0.7,2.3-1.8c0-1-0.6-1.5-2.5-2.3
	c-2.3-0.8-3-1.6-3-3.1c0-1.7,1.3-2.7,3.3-2.7c1.2-0.1,2.3,0.4,3.2,1.1l-0.8,0.9c-0.7-0.6-1.6-1-2.5-1c-1.5,0-2.1,0.8-2.1,1.6
	s0.4,1.4,2.5,2.1c2.3,0.8,3.1,1.6,3.1,3.2C119.7,9.7,118.3,11,116.2,11z M122.2,10.8V0.2h1.2v10.6H122.2z M130.2,11
	c-2.7,0-4.4-2.3-4.4-5.4s1.8-5.5,4.4-5.5s4.4,2.3,4.4,5.5S132.8,11,130.2,11z M130.2,1.1c-1.8,0-3.2,1.7-3.2,4.4s1.4,4.4,3.2,4.4
	c1.8,0,3.2-1.7,3.2-4.4S132,1.1,130.2,1.1L130.2,1.1z M143.5,10.8l-4.6-7.3c-0.3-0.4-0.6-1.1-0.8-1.3v8.6H137V0.2h1.1l4.6,7.4
	c0.3,0.4,0.6,1.1,0.8,1.3V0.2h1.1v10.6H143.5z M159.5,10.7V2.5c-0.1,0.4-0.4,1.2-0.6,1.7l-2.8,6.8l-2.8-6.8
	c-0.3-0.6-0.4-1.1-0.6-1.7v8.2h-1.1V0.2h1.3l2.5,6.3c0.3,0.6,0.6,1.6,0.8,2c0.1-0.4,0.5-1.5,0.8-2l2.5-6.3h1.3v10.5H159.5z
	 M170.2,10.7L169.3,8h-4.4l-0.9,2.7h-1.2l3.6-10.5h1.3l3.7,10.5L170.2,10.7z M167.8,3.5c-0.3-0.7-0.6-1.6-0.6-2.1
	c-0.1,0.4-0.4,1.4-0.6,2.1L165.4,7h3.6L167.8,3.5z M180,10.7l-4.6-7.1c-0.3-0.4-0.6-1.1-0.8-1.3v8.5h-1.1V0.2h1.1l4.5,7.3
	c0.3,0.4,0.6,1.1,0.8,1.3V0.2h1.1v10.5L180,10.7z M190.6,10.7L189.7,8h-4.4l-0.9,2.7h-1.2l3.7-10.5h1.3l3.7,10.5H190.6z M188.2,3.5
	c-0.3-0.7-0.6-1.6-0.6-2.1c-0.1,0.4-0.4,1.4-0.6,2.1L185.8,7h3.6L188.2,3.5z M197.5,10.9c-2.6,0-4.2-2.3-4.2-5.4S195,0,197.6,0
	c1.3-0.1,2.6,0.6,3.3,1.6L200,2.3c-0.7-0.9-1.3-1.3-2.5-1.3c-1.8,0-3.1,1.8-3.1,4.4s1.3,4.4,3.1,4.4c1.8,0,2.7-1.1,2.7-3.2V6.5h-1.9
	V5.4h3v1C201.4,9.4,199.7,10.9,197.5,10.9z M203.6,10.7V0.2h6.3v1.1h-5.2v3.3h3v1.1h-3v4h5.4v1.1L203.6,10.7z M217.4,6.1l2.3,4.5
	h-1.3l-2.3-4.5h-2.5v4.5h-1.2V0.2h4.2c1.8,0,3.3,0.9,3.3,3C219.8,4.8,218.9,5.8,217.4,6.1z M216.5,1.3h-3v3.9h2.8
	c1.6,0,2.3-0.6,2.3-2S217.9,1.3,216.5,1.3L216.5,1.3z"/>
</svg>
