<?xml version="1.0" encoding="utf-8"?>
<!-- Generator: Adobe Illustrator 19.2.0, SVG Export Plug-In . SVG Version: 6.00 Build 0)  -->
<svg version="1.1" id="Layer_1" xmlns="http://www.w3.org/2000/svg" xmlns:xlink="http://www.w3.org/1999/xlink" x="0px" y="0px"
	 viewBox="0 0 350.9 18" style="enable-background:new 0 0 350.9 18;" xml:space="preserve">
<style type="text/css">
	.st0{fill:#FFFFFF;}
</style>
<g>
	<g>
		<path class="st0" d="M133.1,13.7c-0.3,0.9-0.7,1.7-1.3,2.3c-0.6,0.6-1.4,1.1-2.3,1.5c-0.9,0.3-2,0.5-3.2,0.5c-1.1,0-2.1-0.1-3-0.4
			c-0.8-0.3-1.6-0.7-2.2-1.2c-0.6-0.5-1.1-1.1-1.5-1.9c-0.4-0.7-0.7-1.6-0.9-2.5l4.7-1.2c0.3,1,0.7,1.7,1.1,2.2
			c0.4,0.5,1,0.8,1.9,0.8c0.8,0,1.3-0.2,1.7-0.7c0.4-0.5,0.6-1.1,0.6-2V0.4h4.9v10.2C133.5,11.8,133.4,12.8,133.1,13.7z"/>
		<path class="st0" d="M150.1,16.2c-1.1,1-2.7,1.4-4.9,1.4H137V0.4h8.3c2.1,0,3.7,0.4,4.6,1.2c0.9,0.8,1.4,1.9,1.4,3.3
			c0,0.9-0.2,1.7-0.6,2.2c-0.4,0.5-0.9,0.9-1.5,1.2c0.8,0.3,1.4,0.8,1.8,1.4c0.4,0.6,0.6,1.4,0.6,2.4
			C151.7,13.9,151.2,15.2,150.1,16.2z M146.3,4.6c-0.2-0.3-0.6-0.4-1.2-0.4h-3.6v2.7h3.6c0.6,0,0.9-0.1,1.2-0.4
			c0.2-0.2,0.3-0.6,0.3-1C146.6,5.2,146.5,4.8,146.3,4.6z M146.6,11c-0.3-0.3-0.7-0.4-1.3-0.4h-3.8v3.4h3.8c0.6,0,1-0.2,1.3-0.5
			c0.3-0.3,0.4-0.7,0.4-1.2C147,11.7,146.9,11.3,146.6,11z"/>
		<path class="st0" d="M169.1,12.8c-0.4,1.1-0.9,2-1.7,2.8c-0.7,0.8-1.6,1.3-2.5,1.7c-1,0.4-2.1,0.6-3.2,0.6c-1.2,0-2.2-0.2-3.2-0.6
			c-1-0.4-1.8-1-2.5-1.7c-0.7-0.8-1.3-1.7-1.6-2.8c-0.4-1.1-0.6-2.4-0.6-3.8c0-1.4,0.2-2.7,0.6-3.8c0.4-1.1,0.9-2,1.6-2.8
			c0.7-0.8,1.6-1.3,2.5-1.7c1-0.4,2.1-0.6,3.2-0.6c1.2,0,2.2,0.2,3.2,0.6c1,0.4,1.8,1,2.5,1.7c0.7,0.8,1.3,1.7,1.6,2.8
			c0.4,1.1,0.6,2.4,0.6,3.8C169.7,10.4,169.5,11.7,169.1,12.8z M164,5.5c-0.5-0.8-1.3-1.2-2.3-1.2c-1,0-1.7,0.4-2.2,1.2
			c-0.5,0.8-0.8,2-0.8,3.5c0,1.6,0.3,2.7,0.8,3.5c0.5,0.8,1.3,1.2,2.3,1.2c1,0,1.7-0.4,2.2-1.2c0.5-0.8,0.8-2,0.8-3.5
			C164.8,7.5,164.5,6.3,164,5.5z"/>
		<path class="st0" d="M185.3,14.9c-0.4,0.7-0.8,1.3-1.5,1.7c-0.6,0.4-1.4,0.8-2.3,1c-0.9,0.2-1.8,0.3-2.9,0.3c-1.4,0-2.7-0.2-4-0.6
			c-1.3-0.4-2.4-0.9-3.3-1.5l2.3-3.7c0.3,0.2,0.7,0.4,1.1,0.6c0.4,0.2,0.9,0.4,1.3,0.6c0.5,0.2,0.9,0.3,1.4,0.4
			c0.5,0.1,0.9,0.2,1.3,0.2c0.9,0,1.4-0.1,1.8-0.2c0.3-0.2,0.5-0.4,0.5-0.9c0-0.2,0-0.3-0.1-0.4c-0.1-0.1-0.2-0.3-0.5-0.4
			c-0.2-0.1-0.5-0.2-0.9-0.4c-0.4-0.1-0.9-0.2-1.4-0.4c-1-0.2-1.9-0.5-2.7-0.8c-0.8-0.3-1.4-0.6-1.9-1c-0.5-0.4-0.9-0.9-1.1-1.5
			c-0.3-0.6-0.4-1.3-0.4-2.2c0-0.8,0.2-1.5,0.5-2.2c0.3-0.7,0.8-1.3,1.4-1.7c0.6-0.5,1.3-0.8,2.1-1.1c0.8-0.3,1.8-0.4,2.8-0.4
			c1.5,0,2.8,0.2,3.9,0.5c1.1,0.3,2.1,0.8,3,1.5l-2.3,3.7c-0.8-0.5-1.5-0.9-2.3-1.2c-0.8-0.3-1.6-0.4-2.5-0.4
			c-0.7,0-1.2,0.1-1.4,0.3c-0.2,0.2-0.3,0.5-0.3,0.8c0,0.2,0,0.3,0.1,0.4c0.1,0.1,0.2,0.2,0.5,0.3c0.2,0.1,0.5,0.2,0.9,0.3
			c0.4,0.1,0.8,0.2,1.4,0.4c1.1,0.3,2,0.6,2.8,0.9c0.8,0.3,1.4,0.7,1.9,1.1c0.5,0.4,0.9,0.9,1.1,1.5c0.2,0.6,0.4,1.3,0.4,2.1
			C185.9,13.3,185.7,14.2,185.3,14.9z"/>
		<path class="st0" d="M201.7,14.9c-0.4,0.7-0.8,1.3-1.5,1.7c-0.6,0.4-1.4,0.8-2.3,1c-0.9,0.2-1.8,0.3-2.9,0.3c-1.4,0-2.7-0.2-4-0.6
			c-1.3-0.4-2.4-0.9-3.3-1.5l2.3-3.7c0.3,0.2,0.7,0.4,1.1,0.6c0.4,0.2,0.9,0.4,1.3,0.6c0.5,0.2,0.9,0.3,1.4,0.4
			c0.5,0.1,0.9,0.2,1.3,0.2c0.9,0,1.4-0.1,1.8-0.2c0.3-0.2,0.5-0.4,0.5-0.9c0-0.2,0-0.3-0.1-0.4c-0.1-0.1-0.2-0.3-0.5-0.4
			c-0.2-0.1-0.5-0.2-0.9-0.4c-0.4-0.1-0.9-0.2-1.4-0.4c-1-0.2-1.9-0.5-2.7-0.8c-0.8-0.3-1.4-0.6-1.9-1c-0.5-0.4-0.9-0.9-1.1-1.5
			c-0.3-0.6-0.4-1.3-0.4-2.2c0-0.8,0.2-1.5,0.5-2.2c0.3-0.7,0.8-1.3,1.4-1.7c0.6-0.5,1.3-0.8,2.1-1.1c0.8-0.3,1.8-0.4,2.8-0.4
			c1.5,0,2.8,0.2,3.9,0.5c1.1,0.3,2.1,0.8,3,1.5l-2.3,3.7c-0.8-0.5-1.5-0.9-2.3-1.2c-0.8-0.3-1.6-0.4-2.5-0.4
			c-0.7,0-1.2,0.1-1.4,0.3c-0.2,0.2-0.4,0.5-0.4,0.8c0,0.2,0.1,0.3,0.1,0.4c0.1,0.1,0.2,0.2,0.5,0.3c0.2,0.1,0.5,0.2,0.9,0.3
			c0.4,0.1,0.8,0.2,1.4,0.4c1.1,0.3,2,0.6,2.8,0.9c0.8,0.3,1.4,0.7,1.9,1.1c0.5,0.4,0.9,0.9,1.1,1.5c0.2,0.6,0.4,1.3,0.4,2.1
			C202.2,13.3,202,14.2,201.7,14.9z"/>
	</g>
	<g>
		<g>
			<path class="st0" d="M9.9,17.6l-2.8-5.8H5.2v5.8H0.5V0.5h7.7c1,0,1.9,0.1,2.7,0.3c0.8,0.2,1.5,0.5,2.1,1c0.6,0.4,1,1,1.4,1.7
				C14.7,4.2,14.9,5,14.9,6c0,1.3-0.3,2.3-0.8,3.2c-0.6,0.8-1.3,1.4-2.3,1.9l3.4,6.5H9.9z M9.6,4.8C9.3,4.5,8.8,4.3,8,4.3H5.2v3.7H8
				c0.8,0,1.3-0.2,1.7-0.5c0.3-0.3,0.5-0.8,0.5-1.4C10.1,5.6,10,5.2,9.6,4.8z"/>
		</g>
		<g>
			<path class="st0" d="M18,17.6V0.5h13.1v4h-8.4v2.3h5.1v3.9h-5.1v2.9h8.6v4H18z"/>
		</g>
		<g>
			<path class="st0" d="M48.6,13c-0.4,1.1-1,2-1.8,2.7c-0.8,0.7-1.8,1.2-2.9,1.5c-1.1,0.3-2.5,0.5-4,0.5h-5.6V0.5h6
				c1.3,0,2.6,0.1,3.7,0.4c1.1,0.3,2,0.7,2.8,1.4c0.8,0.7,1.3,1.5,1.8,2.6c0.4,1.1,0.6,2.4,0.6,4C49.2,10.5,49,11.9,48.6,13z
				 M44.1,7c-0.1-0.6-0.4-1-0.7-1.4c-0.3-0.4-0.7-0.6-1.2-0.8c-0.5-0.2-1.1-0.3-1.9-0.3h-1.2v9h1c0.7,0,1.4-0.1,1.9-0.2
				c0.5-0.2,1-0.4,1.3-0.8c0.3-0.4,0.6-0.8,0.7-1.4c0.1-0.6,0.2-1.3,0.2-2.1C44.3,8.2,44.3,7.5,44.1,7z"/>
		</g>
		<g>
			<path class="st0" d="M69.4,17.6v-6.8H64v6.8h-4.8V0.5H64v6.2h5.3V0.5h4.8v17.1H69.4z"/>
		</g>
		<g>
			<path class="st0" d="M88.8,17.6l-0.9-3h-5.1l-0.9,3h-5.1l6.2-17.1h4.8l6.2,17.1H88.8z M86.3,9.7c-0.1-0.6-0.3-1-0.4-1.4
				c-0.1-0.4-0.2-0.8-0.3-1.1c-0.1-0.3-0.2-0.6-0.2-0.9c-0.1-0.3-0.1-0.5-0.2-0.8c-0.1,0.3-0.1,0.6-0.2,0.9
				c-0.1,0.3-0.1,0.6-0.2,0.9c-0.1,0.3-0.2,0.7-0.3,1.1c-0.1,0.4-0.2,0.9-0.4,1.4l-0.3,1.1h2.8L86.3,9.7z"/>
		</g>
		<g>
			<path class="st0" d="M102.9,4.6v13h-4.8v-13h-4.8V0.5h14.4v4.1H102.9z"/>
		</g>
	</g>
	<g>
		<path class="st0" d="M113.2,2.8c-0.1,0.2-0.2,0.4-0.4,0.5c-0.2,0.2-0.3,0.3-0.5,0.4c-0.2,0.1-0.4,0.1-0.7,0.1
			c-0.2,0-0.5,0-0.7-0.1c-0.2-0.1-0.4-0.2-0.5-0.4c-0.2-0.2-0.3-0.3-0.4-0.5c-0.1-0.2-0.1-0.4-0.1-0.7c0-0.2,0-0.5,0.1-0.7
			c0.1-0.2,0.2-0.4,0.4-0.5c0.2-0.2,0.3-0.3,0.5-0.4c0.2-0.1,0.4-0.1,0.7-0.1c0.2,0,0.5,0,0.7,0.1c0.2,0.1,0.4,0.2,0.5,0.4
			c0.2,0.2,0.3,0.3,0.4,0.5c0.1,0.2,0.1,0.4,0.1,0.7C113.4,2.4,113.3,2.6,113.2,2.8z M113,1.6c-0.1-0.2-0.2-0.3-0.3-0.5
			c-0.1-0.1-0.3-0.2-0.5-0.3c-0.2-0.1-0.4-0.1-0.6-0.1c-0.2,0-0.4,0-0.6,0.1c-0.2,0.1-0.3,0.2-0.5,0.3c-0.1,0.1-0.2,0.3-0.3,0.5
			c-0.1,0.2-0.1,0.4-0.1,0.6s0,0.4,0.1,0.6c0.1,0.2,0.2,0.3,0.3,0.5c0.1,0.1,0.3,0.2,0.5,0.3c0.2,0.1,0.4,0.1,0.6,0.1
			c0.2,0,0.4,0,0.6-0.1c0.2-0.1,0.3-0.2,0.5-0.3c0.1-0.1,0.2-0.3,0.3-0.5c0.1-0.2,0.1-0.4,0.1-0.6S113.1,1.8,113,1.6z M112.3,2.1
			c-0.1,0.1-0.2,0.2-0.3,0.2l0.4,0.8h-0.4l-0.4-0.7h-0.4v0.7H111V1.2h0.8c0.1,0,0.2,0,0.2,0c0.1,0,0.1,0.1,0.2,0.1
			c0.1,0,0.1,0.1,0.1,0.2c0,0.1,0,0.2,0,0.3C112.4,1.9,112.4,2,112.3,2.1z M112,1.6c-0.1,0-0.1-0.1-0.2-0.1h-0.5V2h0.5
			c0.1,0,0.2,0,0.2-0.1c0.1,0,0.1-0.1,0.1-0.2C112.1,1.7,112.1,1.6,112,1.6z"/>
	</g>
	<g>
		<path class="st0" d="M208.7,2.8c-0.1,0.2-0.2,0.4-0.4,0.5c-0.2,0.2-0.3,0.3-0.5,0.4c-0.2,0.1-0.4,0.1-0.7,0.1
			c-0.2,0-0.5,0-0.7-0.1c-0.2-0.1-0.4-0.2-0.5-0.4c-0.2-0.2-0.3-0.3-0.4-0.5c-0.1-0.2-0.1-0.4-0.1-0.7c0-0.2,0-0.5,0.1-0.7
			c0.1-0.2,0.2-0.4,0.4-0.5c0.2-0.2,0.3-0.3,0.5-0.4c0.2-0.1,0.4-0.1,0.7-0.1c0.2,0,0.5,0,0.7,0.1c0.2,0.1,0.4,0.2,0.5,0.4
			c0.2,0.2,0.3,0.3,0.4,0.5c0.1,0.2,0.1,0.4,0.1,0.7C208.9,2.4,208.8,2.6,208.7,2.8z M208.5,1.6c-0.1-0.2-0.2-0.3-0.3-0.5
			c-0.1-0.1-0.3-0.2-0.5-0.3c-0.2-0.1-0.4-0.1-0.6-0.1c-0.2,0-0.4,0-0.6,0.1c-0.2,0.1-0.3,0.2-0.5,0.3c-0.1,0.1-0.2,0.3-0.3,0.5
			c-0.1,0.2-0.1,0.4-0.1,0.6s0,0.4,0.1,0.6c0.1,0.2,0.2,0.3,0.3,0.5c0.1,0.1,0.3,0.2,0.5,0.3c0.2,0.1,0.4,0.1,0.6,0.1
			c0.2,0,0.4,0,0.6-0.1c0.2-0.1,0.3-0.2,0.5-0.3c0.1-0.1,0.2-0.3,0.3-0.5c0.1-0.2,0.1-0.4,0.1-0.6S208.5,1.8,208.5,1.6z M207.8,2.1
			c-0.1,0.1-0.2,0.2-0.3,0.2l0.4,0.8h-0.4l-0.4-0.7h-0.4v0.7h-0.3V1.2h0.8c0.1,0,0.2,0,0.2,0c0.1,0,0.1,0.1,0.2,0.1
			c0.1,0,0.1,0.1,0.1,0.2c0,0.1,0.1,0.2,0.1,0.3C207.9,1.9,207.9,2,207.8,2.1z M207.5,1.6c-0.1,0-0.1-0.1-0.2-0.1h-0.5V2h0.5
			c0.1,0,0.2,0,0.2-0.1c0.1,0,0.1-0.1,0.1-0.2C207.6,1.7,207.6,1.6,207.5,1.6z"/>
	</g>
	<g>
		<path class="st0" d="M230.7,14.4c-0.3,0.7-0.7,1.3-1.3,1.8c-0.5,0.5-1.2,0.8-1.9,1.1c-0.8,0.2-1.6,0.4-2.5,0.4h-7.9V0.3h8
			c1.7,0,3,0.4,4,1.2c1,0.8,1.5,1.9,1.5,3.4c0,0.7-0.2,1.4-0.5,2s-0.8,1-1.3,1.4c0.7,0.3,1.3,0.8,1.7,1.4c0.5,0.6,0.7,1.4,0.7,2.4
			C231.1,12.9,231,13.7,230.7,14.4z M226.5,3.9c-0.3-0.3-0.9-0.4-1.6-0.4h-4.4v3.3h4.6c0.7,0,1.2-0.2,1.5-0.5
			c0.3-0.3,0.4-0.7,0.4-1.2C227,4.6,226.8,4.2,226.5,3.9z M225.1,9.8h-4.6v4.5h4.6c0.8,0,1.5-0.2,1.9-0.6c0.4-0.4,0.6-1,0.6-1.6
			C227.6,10.6,226.7,9.8,225.1,9.8z"/>
		<path class="st0" d="M247.7,8.4c-0.3,0.7-0.8,1.3-1.3,1.8c-0.6,0.5-1.2,0.8-2,1c-0.8,0.2-1.6,0.3-2.5,0.3h-3.8v6.1h-3.4V0.3h7.6
			c0.8,0,1.6,0.1,2.3,0.3c0.7,0.2,1.4,0.6,1.9,1c0.5,0.5,1,1,1.3,1.7c0.3,0.7,0.5,1.5,0.5,2.4C248.2,6.8,248.1,7.6,247.7,8.4z
			 M244,4.2c-0.5-0.4-1.1-0.5-1.9-0.5h-4v4.4h4.1c1.7,0,2.5-0.7,2.5-2.2C244.6,5.1,244.4,4.5,244,4.2z"/>
		<path class="st0" d="M264.3,17.6v-6.4c0-0.2,0-0.5,0-0.9c0-0.4,0-0.7,0-1.1c0-0.4,0-0.7,0-1.1c0-0.3,0-0.6,0-0.7
			c-0.1,0.3-0.3,0.8-0.5,1.3c-0.2,0.5-0.5,1.1-0.7,1.6l-3.5,7.7l-3.5-7.7c-0.2-0.5-0.5-1-0.7-1.6c-0.2-0.5-0.4-1-0.5-1.3
			c0,0.2,0,0.4,0,0.7c0,0.3,0,0.7,0,1.1c0,0.4,0,0.8,0,1.1c0,0.4,0,0.7,0,0.9v6.4h-3.4V0.3h3.3l3.6,7.9c0.1,0.2,0.2,0.5,0.3,0.8
			c0.1,0.3,0.2,0.5,0.3,0.8c0.1,0.3,0.2,0.5,0.3,0.7c0.1,0.2,0.2,0.4,0.2,0.6c0.1-0.3,0.3-0.8,0.5-1.3c0.2-0.6,0.4-1.1,0.7-1.6
			l3.5-7.9h3.4v17.3H264.3z"/>
		<path class="st0" d="M291.7,14.6c-0.3,0.7-0.7,1.3-1.2,1.7c-0.6,0.5-1.3,0.9-2.1,1.1c-0.9,0.3-1.9,0.4-3.1,0.4
			c-1.5,0-2.8-0.3-4-0.8c-1.2-0.6-2.1-1.3-2.8-2.3l2.5-2.2c0.6,0.7,1.3,1.2,2,1.5c0.8,0.3,1.5,0.5,2.4,0.5c1,0,1.8-0.2,2.3-0.4
			c0.5-0.3,0.7-0.8,0.7-1.4c0-0.3,0-0.5-0.1-0.7c-0.1-0.2-0.3-0.4-0.6-0.6s-0.7-0.4-1.2-0.5c-0.5-0.2-1.2-0.3-2-0.5
			c-0.8-0.2-1.5-0.4-2.2-0.6c-0.7-0.2-1.2-0.6-1.7-0.9c-0.5-0.4-0.9-0.9-1.1-1.4c-0.3-0.6-0.4-1.3-0.4-2.2c0-0.8,0.2-1.5,0.5-2.1
			c0.3-0.6,0.8-1.2,1.3-1.6c0.6-0.4,1.2-0.8,2-1c0.8-0.2,1.6-0.3,2.4-0.3c1.4,0,2.5,0.2,3.6,0.7s1.9,1.2,2.8,2l-2.5,2.4
			c-0.6-0.6-1.2-1-1.8-1.3s-1.3-0.5-2.1-0.5c-0.5,0-0.9,0-1.2,0.1c-0.3,0.1-0.6,0.2-0.8,0.4c-0.2,0.1-0.3,0.3-0.4,0.5
			c-0.1,0.2-0.1,0.4-0.1,0.6c0,0.3,0.1,0.5,0.2,0.7c0.1,0.2,0.3,0.4,0.6,0.5c0.3,0.1,0.6,0.3,1.1,0.4c0.4,0.1,1,0.3,1.7,0.4
			c0.7,0.2,1.4,0.4,2.1,0.6c0.7,0.2,1.3,0.5,1.9,0.9c0.6,0.4,1,0.9,1.3,1.5c0.3,0.6,0.5,1.4,0.5,2.3
			C292.1,13.2,291.9,13.9,291.7,14.6z"/>
		<path class="st0" d="M307.8,15.8c-1.2,1.4-3,2.1-5.2,2.1c-1,0-2-0.2-2.9-0.5c-0.9-0.3-1.6-0.9-2.2-1.5c-0.6-0.7-1.1-1.5-1.4-2.5
			c-0.3-1-0.5-2.1-0.5-3.4V0.3h3.4V10c0,1.4,0.3,2.5,0.9,3.3c0.6,0.8,1.5,1.2,2.6,1.2s2-0.4,2.6-1.2c0.6-0.8,1-1.9,1-3.3V0.3h3.4V10
			C309.6,12.5,309,14.4,307.8,15.8z"/>
		<path class="st0" d="M314.2,17.6V0.3h3.4v17.3H314.2z"/>
		<path class="st0" d="M329.7,3.7v13.9h-3.4V3.7h-5V0.3h13.4v3.4H329.7z"/>
		<path class="st0" d="M338.1,17.6V0.3h12v3.4h-8.6v3h5V10h-5v4.2h8.9v3.4H338.1z"/>
	</g>
</g>
</svg>
