<?xml version="1.0" encoding="utf-8"?>
<!-- Generator: Adobe Illustrator 21.1.0, SVG Export Plug-In . SVG Version: 6.00 Build 0)  -->
<svg version="1.1" id="Layer_1" xmlns="http://www.w3.org/2000/svg" xmlns:xlink="http://www.w3.org/1999/xlink" x="0px" y="0px"
	 viewBox="0 0 253.3 11" style="enable-background:new 0 0 253.3 11;" xml:space="preserve">
<style type="text/css">
	.st0{fill:#FFFFFF;}
</style>
<path class="st0" d="M5.7,10.8L4,7.2H2.8v3.5H0V0.3h4.7c0.6,0,1.2,0.1,1.7,0.2c0.5,0.1,0.9,0.3,1.3,0.6C8,1.3,8.3,1.7,8.5,2.1
	c0.2,0.4,0.3,1,0.3,1.6c0,0.8-0.2,1.4-0.5,1.9C7.9,6.1,7.5,6.5,6.9,6.8l2.1,4H5.7z M5.6,3c-0.2-0.2-0.5-0.3-1-0.3H2.8v2.3h1.7
	c0.5,0,0.8-0.1,1-0.3c0.2-0.2,0.3-0.5,0.3-0.9C5.9,3.4,5.8,3.2,5.6,3z M10.7,10.8V0.3h8v2.4h-5.1v1.4h3.1v2.4h-3.1v1.8h5.3v2.4H10.7
	z M29.4,7.9c-0.2,0.7-0.6,1.2-1.1,1.6c-0.5,0.4-1.1,0.7-1.8,0.9c-0.7,0.2-1.5,0.3-2.4,0.3h-3.4V0.3h3.7c0.8,0,1.6,0.1,2.2,0.3
	c0.7,0.2,1.2,0.5,1.7,0.9c0.5,0.4,0.8,0.9,1.1,1.6c0.3,0.7,0.4,1.5,0.4,2.5C29.7,6.4,29.6,7.3,29.4,7.9z M26.6,4.3
	c-0.1-0.3-0.2-0.6-0.4-0.9C26,3.2,25.8,3,25.5,2.9c-0.3-0.1-0.7-0.2-1.1-0.2h-0.7v5.5h0.6c0.5,0,0.8,0,1.2-0.1
	C25.7,8,26,7.9,26.2,7.7c0.2-0.2,0.4-0.5,0.4-0.9c0.1-0.4,0.1-0.8,0.1-1.3C26.8,5,26.7,4.6,26.6,4.3z M42.1,10.8V6.6h-3.3v4.1h-3
	V0.3h3v3.8h3.3V0.3h3v10.5H42.1z M53.9,10.8l-0.6-1.8h-3.1l-0.6,1.8h-3.1l3.8-10.5h2.9l3.8,10.5H53.9z M52.4,5.9
	c-0.1-0.3-0.2-0.6-0.2-0.9c-0.1-0.2-0.1-0.5-0.2-0.7C52,4.2,51.9,4,51.9,3.8c0-0.2-0.1-0.3-0.1-0.5c0,0.2-0.1,0.4-0.1,0.5
	c0,0.2-0.1,0.4-0.1,0.6c-0.1,0.2-0.1,0.4-0.2,0.7c-0.1,0.2-0.1,0.5-0.2,0.9l-0.2,0.7h1.7L52.4,5.9z M62.5,2.8v7.9h-2.9V2.8h-2.9V0.3
	h8.8v2.5H62.5z M68.9,1.7c-0.1,0.1-0.1,0.2-0.2,0.3c-0.1,0.1-0.2,0.2-0.3,0.2c-0.1,0.1-0.3,0.1-0.4,0.1c-0.1,0-0.3,0-0.4-0.1
	c-0.1-0.1-0.2-0.1-0.3-0.2C67.1,2,67,1.9,66.9,1.7c-0.1-0.1-0.1-0.3-0.1-0.4c0-0.1,0-0.3,0.1-0.4c0.1-0.1,0.1-0.2,0.2-0.3
	c0.1-0.1,0.2-0.2,0.3-0.2c0.1-0.1,0.3-0.1,0.4-0.1c0.2,0,0.3,0,0.4,0.1c0.1,0.1,0.2,0.1,0.3,0.2c0.1,0.1,0.2,0.2,0.2,0.3
	C68.9,1,69,1.2,69,1.3C69,1.5,68.9,1.6,68.9,1.7z M68.7,1c0-0.1-0.1-0.2-0.2-0.3c-0.1-0.1-0.2-0.1-0.3-0.2c-0.1,0-0.2-0.1-0.3-0.1
	c-0.1,0-0.2,0-0.3,0.1c-0.1,0-0.2,0.1-0.3,0.2c-0.1,0.1-0.1,0.2-0.2,0.3C67,1.1,67,1.2,67,1.3c0,0.1,0,0.2,0.1,0.3
	c0,0.1,0.1,0.2,0.2,0.3c0.1,0.1,0.2,0.1,0.3,0.2c0.1,0,0.2,0.1,0.3,0.1c0.1,0,0.2,0,0.3-0.1c0.1,0,0.2-0.1,0.3-0.2
	c0.1-0.1,0.1-0.2,0.2-0.3c0-0.1,0.1-0.2,0.1-0.3C68.8,1.2,68.8,1.1,68.7,1z M68.3,1.3c0,0.1-0.1,0.1-0.2,0.1l0.2,0.5h-0.2l-0.2-0.4
	h-0.2v0.4h-0.2V0.7H68c0,0,0.1,0,0.1,0c0,0,0.1,0,0.1,0.1c0,0,0.1,0.1,0.1,0.1c0,0,0,0.1,0,0.2C68.4,1.2,68.4,1.2,68.3,1.3z M68.1,1
	c0,0-0.1,0-0.1,0h-0.3v0.3H68c0.1,0,0.1,0,0.1,0c0,0,0.1-0.1,0.1-0.1C68.2,1,68.2,1,68.1,1z M80.9,8.8c-0.2,0.4-0.4,0.8-0.8,1.1
	c-0.3,0.3-0.7,0.5-1.2,0.7c-0.5,0.1-1,0.2-1.5,0.2h-4.8V0.2h4.9c1,0,1.8,0.2,2.5,0.7c0.6,0.5,0.9,1.2,0.9,2.1c0,0.5-0.1,0.9-0.3,1.2
	C80.3,4.5,80,4.8,79.7,5c0.4,0.2,0.8,0.5,1.1,0.9c0.3,0.4,0.4,0.9,0.4,1.5C81.2,7.9,81.1,8.4,80.9,8.8z M78.3,2.4
	c-0.2-0.2-0.5-0.3-1-0.3h-2.7v2h2.8c0.4,0,0.8-0.1,0.9-0.3c0.2-0.2,0.3-0.4,0.3-0.7C78.6,2.8,78.5,2.6,78.3,2.4z M77.5,6h-2.8v2.7
	h2.8c0.5,0,0.9-0.1,1.1-0.4c0.2-0.2,0.4-0.6,0.4-1C79,6.5,78.5,6,77.5,6z M90.7,9.7c-0.8,0.8-1.8,1.3-3.2,1.3
	c-0.6,0-1.2-0.1-1.7-0.3c-0.5-0.2-1-0.5-1.4-0.9c-0.4-0.4-0.7-0.9-0.9-1.5c-0.2-0.6-0.3-1.3-0.3-2.1V0.2h2.1v5.9
	c0,0.9,0.2,1.5,0.6,2c0.4,0.5,0.9,0.7,1.6,0.7c0.7,0,1.2-0.2,1.6-0.7c0.4-0.5,0.6-1.2,0.6-2V0.2h2.1v5.9C91.8,7.6,91.4,8.8,90.7,9.7
	z M102,8.9c-0.2,0.4-0.4,0.8-0.8,1.1c-0.3,0.3-0.8,0.5-1.3,0.7c-0.5,0.2-1.1,0.2-1.9,0.2c-0.9,0-1.7-0.2-2.4-0.5
	C94.9,10.1,94.4,9.6,94,9l1.5-1.4c0.4,0.4,0.8,0.7,1.2,0.9c0.5,0.2,0.9,0.3,1.5,0.3c0.6,0,1.1-0.1,1.4-0.3c0.3-0.2,0.4-0.5,0.4-0.9
	c0-0.2,0-0.3-0.1-0.4c-0.1-0.1-0.2-0.2-0.3-0.4c-0.2-0.1-0.4-0.2-0.7-0.3c-0.3-0.1-0.7-0.2-1.2-0.3c-0.5-0.1-0.9-0.2-1.3-0.4
	c-0.4-0.2-0.8-0.3-1.1-0.6s-0.5-0.5-0.7-0.9c-0.2-0.4-0.2-0.8-0.2-1.3c0-0.5,0.1-0.9,0.3-1.3s0.5-0.7,0.8-1c0.3-0.3,0.7-0.5,1.2-0.6
	c0.5-0.1,1-0.2,1.5-0.2c0.8,0,1.6,0.1,2.2,0.4c0.6,0.3,1.2,0.7,1.7,1.2l-1.5,1.5c-0.3-0.4-0.7-0.6-1.1-0.8c-0.4-0.2-0.8-0.3-1.3-0.3
	c-0.3,0-0.5,0-0.7,0.1c-0.2,0.1-0.3,0.1-0.5,0.2c-0.1,0.1-0.2,0.2-0.3,0.3c-0.1,0.1-0.1,0.2-0.1,0.3c0,0.2,0,0.3,0.1,0.4
	c0.1,0.1,0.2,0.2,0.3,0.3c0.2,0.1,0.4,0.2,0.7,0.3c0.3,0.1,0.6,0.2,1,0.3c0.4,0.1,0.8,0.2,1.3,0.4c0.4,0.1,0.8,0.3,1.1,0.6
	s0.6,0.5,0.8,0.9c0.2,0.4,0.3,0.8,0.3,1.4C102.2,8.1,102.1,8.5,102,8.9z M104.6,10.8V0.2h2.1v10.6H104.6z M116.3,10.8L112.4,5
	c-0.1-0.2-0.3-0.4-0.4-0.6c-0.1-0.2-0.3-0.4-0.3-0.6c0,0.1,0,0.2,0,0.4c0,0.2,0,0.4,0,0.6c0,0.2,0,0.4,0,0.7c0,0.2,0,0.4,0,0.6v4.7
	h-2.1V0.2h2l3.7,5.6c0.1,0.2,0.3,0.4,0.4,0.6c0.1,0.2,0.3,0.4,0.3,0.6c0-0.1,0-0.2,0-0.4c0-0.2,0-0.4,0-0.6c0-0.2,0-0.5,0-0.7
	c0-0.2,0-0.4,0-0.6V0.2h2.1v10.6H116.3z M120.9,10.8V0.2h7.3v2.1H123v1.8h3v2.1h-3v2.6h5.5v2.1H120.9z M138,8.9
	c-0.2,0.4-0.4,0.8-0.8,1.1c-0.3,0.3-0.8,0.5-1.3,0.7c-0.5,0.2-1.1,0.2-1.9,0.2c-0.9,0-1.7-0.2-2.4-0.5c-0.7-0.3-1.3-0.8-1.7-1.4
	l1.5-1.4c0.4,0.4,0.8,0.7,1.2,0.9c0.5,0.2,0.9,0.3,1.5,0.3c0.6,0,1.1-0.1,1.4-0.3c0.3-0.2,0.4-0.5,0.4-0.9c0-0.2,0-0.3-0.1-0.4
	c-0.1-0.1-0.2-0.2-0.3-0.4c-0.2-0.1-0.4-0.2-0.7-0.3c-0.3-0.1-0.7-0.2-1.2-0.3c-0.5-0.1-0.9-0.2-1.3-0.4c-0.4-0.2-0.8-0.3-1.1-0.6
	s-0.5-0.5-0.7-0.9c-0.2-0.4-0.2-0.8-0.2-1.3c0-0.5,0.1-0.9,0.3-1.3s0.5-0.7,0.8-1c0.3-0.3,0.7-0.5,1.2-0.6c0.5-0.1,1-0.2,1.5-0.2
	c0.8,0,1.6,0.1,2.2,0.4c0.6,0.3,1.2,0.7,1.7,1.2l-1.5,1.5c-0.3-0.4-0.7-0.6-1.1-0.8c-0.4-0.2-0.8-0.3-1.3-0.3c-0.3,0-0.5,0-0.7,0.1
	c-0.2,0.1-0.3,0.1-0.5,0.2c-0.1,0.1-0.2,0.2-0.3,0.3c-0.1,0.1-0.1,0.2-0.1,0.3c0,0.2,0,0.3,0.1,0.4c0.1,0.1,0.2,0.2,0.3,0.3
	c0.2,0.1,0.4,0.2,0.7,0.3c0.3,0.1,0.6,0.2,1,0.3c0.4,0.1,0.8,0.2,1.3,0.4c0.4,0.1,0.8,0.3,1.1,0.6c0.3,0.2,0.6,0.5,0.8,0.9
	c0.2,0.4,0.3,0.8,0.3,1.4C138.3,8.1,138.2,8.5,138,8.9z M147.8,8.9c-0.2,0.4-0.4,0.8-0.8,1.1c-0.3,0.3-0.8,0.5-1.3,0.7
	c-0.5,0.2-1.1,0.2-1.9,0.2c-0.9,0-1.7-0.2-2.4-0.5c-0.7-0.3-1.3-0.8-1.7-1.4l1.5-1.4c0.4,0.4,0.8,0.7,1.2,0.9
	c0.5,0.2,0.9,0.3,1.5,0.3c0.6,0,1.1-0.1,1.4-0.3c0.3-0.2,0.4-0.5,0.4-0.9c0-0.2,0-0.3-0.1-0.4c-0.1-0.1-0.2-0.2-0.3-0.4
	c-0.2-0.1-0.4-0.2-0.7-0.3c-0.3-0.1-0.7-0.2-1.2-0.3c-0.5-0.1-0.9-0.2-1.3-0.4c-0.4-0.2-0.8-0.3-1.1-0.6s-0.5-0.5-0.7-0.9
	c-0.2-0.4-0.2-0.8-0.2-1.3c0-0.5,0.1-0.9,0.3-1.3s0.5-0.7,0.8-1c0.3-0.3,0.7-0.5,1.2-0.6c0.5-0.1,1-0.2,1.5-0.2
	c0.8,0,1.6,0.1,2.2,0.4c0.6,0.3,1.2,0.7,1.7,1.2l-1.5,1.5c-0.3-0.4-0.7-0.6-1.1-0.8c-0.4-0.2-0.8-0.3-1.3-0.3c-0.3,0-0.5,0-0.7,0.1
	c-0.2,0.1-0.3,0.1-0.5,0.2c-0.1,0.1-0.2,0.2-0.3,0.3c-0.1,0.1-0.1,0.2-0.1,0.3c0,0.2,0,0.3,0.1,0.4c0.1,0.1,0.2,0.2,0.3,0.3
	c0.2,0.1,0.4,0.2,0.7,0.3c0.3,0.1,0.6,0.2,1,0.3c0.4,0.1,0.8,0.2,1.3,0.4c0.4,0.1,0.8,0.3,1.1,0.6s0.6,0.5,0.8,0.9
	c0.2,0.4,0.3,0.8,0.3,1.4C148.1,8.1,148,8.5,147.8,8.9z M161.7,10.8l-0.8-2.4H157l-0.8,2.4h-2.3L158,0.2h2.1l4,10.6H161.7z
	 M159.5,4.5c-0.1-0.3-0.2-0.6-0.3-0.9C159.1,3.3,159,3,159,2.8c-0.1,0.2-0.1,0.4-0.2,0.7c-0.1,0.3-0.2,0.6-0.3,0.9l-0.7,1.9h2.4
	L159.5,4.5z M172.9,9.7c-0.8,0.8-1.8,1.3-3.2,1.3c-0.6,0-1.2-0.1-1.7-0.3c-0.5-0.2-1-0.5-1.4-0.9c-0.4-0.4-0.7-0.9-0.9-1.5
	c-0.2-0.6-0.3-1.3-0.3-2.1V0.2h2.1v5.9c0,0.9,0.2,1.5,0.6,2c0.4,0.5,0.9,0.7,1.6,0.7c0.7,0,1.2-0.2,1.6-0.7c0.4-0.5,0.6-1.2,0.6-2
	V0.2h2.1v5.9C174,7.6,173.6,8.8,172.9,9.7z M181.1,2.2v8.5H179V2.2h-3V0.2h8.2v2.1H181.1z M194.1,7.7c-0.2,0.7-0.5,1.2-1,1.7
	c-0.4,0.5-0.9,0.8-1.5,1.1c-0.6,0.3-1.2,0.4-1.9,0.4c-0.7,0-1.3-0.1-1.9-0.4c-0.6-0.2-1.1-0.6-1.5-1.1c-0.4-0.5-0.7-1-1-1.7
	c-0.2-0.7-0.3-1.4-0.3-2.3c0-0.9,0.1-1.6,0.3-2.3c0.2-0.7,0.5-1.2,1-1.7c0.4-0.5,0.9-0.8,1.5-1.1c0.6-0.3,1.2-0.4,1.9-0.4
	c0.7,0,1.3,0.1,1.9,0.4c0.6,0.2,1.1,0.6,1.5,1.1c0.4,0.5,0.7,1,1,1.7s0.3,1.4,0.3,2.3C194.5,6.3,194.3,7.1,194.1,7.7z M191.6,3
	c-0.5-0.6-1.1-0.9-1.8-0.9c-0.7,0-1.3,0.3-1.8,0.9c-0.4,0.6-0.7,1.4-0.7,2.5c0,1.1,0.2,1.9,0.7,2.5s1.1,0.9,1.8,0.9s1.3-0.3,1.8-0.9
	c0.4-0.6,0.7-1.4,0.7-2.5C192.3,4.4,192,3.6,191.6,3z M204.4,10.8V6.9c0-0.1,0-0.3,0-0.5c0-0.2,0-0.4,0-0.7c0-0.2,0-0.4,0-0.7
	c0-0.2,0-0.4,0-0.5c-0.1,0.2-0.2,0.5-0.3,0.8c-0.1,0.3-0.3,0.7-0.4,1l-2.2,4.7l-2.1-4.7c-0.1-0.3-0.3-0.6-0.4-1
	c-0.1-0.3-0.2-0.6-0.3-0.8c0,0.1,0,0.3,0,0.5c0,0.2,0,0.4,0,0.7c0,0.2,0,0.5,0,0.7c0,0.2,0,0.4,0,0.5v3.9h-2.1V0.2h2l2.2,4.8
	c0.1,0.2,0.1,0.3,0.2,0.5c0.1,0.2,0.1,0.3,0.2,0.5c0.1,0.2,0.1,0.3,0.2,0.5c0.1,0.1,0.1,0.3,0.1,0.3c0.1-0.2,0.2-0.5,0.3-0.8
	c0.1-0.3,0.3-0.7,0.4-1l2.1-4.8h2.1v10.6H204.4z M216.3,10.8l-0.8-2.4h-3.9l-0.8,2.4h-2.3l4.1-10.6h2.1l4,10.6H216.3z M214,4.5
	c-0.1-0.3-0.2-0.6-0.3-0.9c-0.1-0.3-0.2-0.5-0.2-0.7c-0.1,0.2-0.1,0.4-0.2,0.7c-0.1,0.3-0.2,0.6-0.3,0.9l-0.7,1.9h2.4L214,4.5z
	 M223.6,2.2v8.5h-2.1V2.2h-3V0.2h8.2v2.1H223.6z M228.8,10.8V0.2h2.1v10.6H228.8z M242.2,7.7c-0.2,0.7-0.5,1.2-1,1.7
	c-0.4,0.5-0.9,0.8-1.5,1.1c-0.6,0.3-1.2,0.4-1.9,0.4c-0.7,0-1.3-0.1-1.9-0.4c-0.6-0.2-1.1-0.6-1.5-1.1c-0.4-0.5-0.7-1-1-1.7
	c-0.2-0.7-0.3-1.4-0.3-2.3c0-0.9,0.1-1.6,0.3-2.3c0.2-0.7,0.5-1.2,1-1.7c0.4-0.5,0.9-0.8,1.5-1.1c0.6-0.3,1.2-0.4,1.9-0.4
	c0.7,0,1.3,0.1,1.9,0.4c0.6,0.2,1.1,0.6,1.5,1.1c0.4,0.5,0.7,1,1,1.7c0.2,0.7,0.3,1.4,0.3,2.3C242.6,6.3,242.5,7.1,242.2,7.7z
	 M239.7,3c-0.5-0.6-1.1-0.9-1.8-0.9c-0.7,0-1.3,0.3-1.8,0.9c-0.4,0.6-0.7,1.4-0.7,2.5c0,1.1,0.2,1.9,0.7,2.5
	c0.5,0.6,1.1,0.9,1.8,0.9c0.7,0,1.3-0.3,1.8-0.9c0.4-0.6,0.7-1.4,0.7-2.5C240.4,4.4,240.2,3.6,239.7,3z M251.4,10.8L247.5,5
	c-0.1-0.2-0.3-0.4-0.4-0.6c-0.1-0.2-0.3-0.4-0.3-0.6c0,0.1,0,0.2,0,0.4c0,0.2,0,0.4,0,0.6c0,0.2,0,0.4,0,0.7c0,0.2,0,0.4,0,0.6v4.7
	h-2.1V0.2h2l3.7,5.6c0.1,0.2,0.3,0.4,0.4,0.6c0.1,0.2,0.3,0.4,0.3,0.6c0-0.1,0-0.2,0-0.4c0-0.2,0-0.4,0-0.6c0-0.2,0-0.5,0-0.7
	c0-0.2,0-0.4,0-0.6V0.2h2.1v10.6H251.4z"/>
</svg>
