<?xml version="1.0" encoding="utf-8"?>
<!-- Generator: Adobe Illustrator 19.2.0, SVG Export Plug-In . SVG Version: 6.00 Build 0)  -->
<svg version="1.1" id="Layer_1" xmlns="http://www.w3.org/2000/svg" xmlns:xlink="http://www.w3.org/1999/xlink" x="0px" y="0px"
	 viewBox="0 0 174.9 11" style="enable-background:new 0 0 174.9 11;" xml:space="preserve">
<style type="text/css">
	.st0{fill:#FFFFFF;}
</style>
<g>
	<g>
		<path class="st0" d="M81.3,8.4c-0.2,0.5-0.5,1-0.8,1.4c-0.4,0.4-0.8,0.7-1.4,0.9c-0.6,0.2-1.2,0.3-2,0.3c-0.7,0-1.3-0.1-1.8-0.3
			c-0.5-0.2-1-0.4-1.3-0.7c-0.4-0.3-0.7-0.7-0.9-1.2c-0.2-0.5-0.4-1-0.6-1.5l2.9-0.8c0.2,0.6,0.4,1.1,0.6,1.4
			c0.3,0.3,0.6,0.5,1.1,0.5c0.5,0,0.8-0.1,1.1-0.4c0.2-0.3,0.3-0.7,0.3-1.2V0.2h3v6.3C81.6,7.2,81.5,7.8,81.3,8.4z"/>
		<path class="st0" d="M91.8,9.9c-0.7,0.6-1.6,0.9-3,0.9h-5.1V0.2h5.1c1.3,0,2.2,0.2,2.8,0.7c0.6,0.5,0.9,1.2,0.9,2
			c0,0.6-0.1,1-0.4,1.3c-0.2,0.3-0.5,0.6-0.9,0.8c0.5,0.2,0.9,0.5,1.1,0.9c0.3,0.4,0.4,0.9,0.4,1.5C92.7,8.5,92.4,9.3,91.8,9.9z
			 M89.4,2.8c-0.1-0.2-0.4-0.2-0.7-0.2h-2.2v1.7h2.2c0.3,0,0.6-0.1,0.7-0.2c0.1-0.1,0.2-0.4,0.2-0.6C89.6,3.2,89.6,3,89.4,2.8z
			 M89.6,6.7c-0.2-0.2-0.4-0.3-0.8-0.3h-2.3v2.1h2.3c0.4,0,0.6-0.1,0.8-0.3c0.2-0.2,0.3-0.4,0.3-0.7C89.9,7.1,89.8,6.9,89.6,6.7z"/>
		<path class="st0" d="M103.4,7.8c-0.2,0.7-0.6,1.2-1,1.7c-0.4,0.5-0.9,0.8-1.5,1.1c-0.6,0.2-1.3,0.4-2,0.4c-0.7,0-1.4-0.1-2-0.4
			c-0.6-0.2-1.1-0.6-1.5-1c-0.4-0.5-0.8-1-1-1.7C94.1,7.2,94,6.4,94,5.5c0-0.9,0.1-1.6,0.4-2.3c0.2-0.7,0.6-1.2,1-1.7
			c0.4-0.5,0.9-0.8,1.6-1.1c0.6-0.2,1.3-0.4,2-0.4c0.7,0,1.4,0.1,2,0.4c0.6,0.2,1.1,0.6,1.5,1c0.4,0.5,0.8,1,1,1.7
			c0.2,0.7,0.4,1.5,0.4,2.3C103.7,6.4,103.6,7.2,103.4,7.8z M100.2,3.4c-0.3-0.5-0.8-0.7-1.4-0.7c-0.6,0-1,0.2-1.4,0.7
			C97.2,3.8,97,4.5,97,5.5c0,1,0.2,1.7,0.5,2.2c0.3,0.5,0.8,0.7,1.4,0.7c0.6,0,1-0.2,1.4-0.7c0.3-0.5,0.5-1.2,0.5-2.2
			C100.7,4.6,100.5,3.9,100.2,3.4z"/>
		<path class="st0" d="M113.3,9.1c-0.2,0.4-0.5,0.8-0.9,1.1c-0.4,0.3-0.8,0.5-1.4,0.6c-0.5,0.1-1.1,0.2-1.7,0.2
			c-0.9,0-1.7-0.1-2.4-0.4c-0.8-0.2-1.4-0.6-2-0.9l1.4-2.3c0.2,0.1,0.4,0.3,0.7,0.4c0.3,0.1,0.5,0.2,0.8,0.3
			c0.3,0.1,0.6,0.2,0.8,0.2c0.3,0.1,0.5,0.1,0.8,0.1c0.5,0,0.9-0.1,1.1-0.2c0.2-0.1,0.3-0.3,0.3-0.5c0-0.1,0-0.2-0.1-0.3
			c-0.1-0.1-0.2-0.2-0.3-0.2c-0.1-0.1-0.3-0.2-0.6-0.2c-0.2-0.1-0.5-0.1-0.9-0.2c-0.6-0.1-1.2-0.3-1.7-0.5c-0.5-0.2-0.9-0.4-1.2-0.6
			c-0.3-0.3-0.5-0.6-0.7-0.9c-0.2-0.4-0.2-0.8-0.2-1.3c0-0.5,0.1-0.9,0.3-1.4c0.2-0.4,0.5-0.8,0.8-1.1c0.4-0.3,0.8-0.5,1.3-0.7
			c0.5-0.2,1.1-0.2,1.7-0.2c0.9,0,1.7,0.1,2.4,0.3c0.7,0.2,1.3,0.5,1.8,0.9l-1.4,2.3c-0.5-0.3-0.9-0.6-1.4-0.7
			c-0.5-0.2-1-0.3-1.5-0.3c-0.4,0-0.7,0.1-0.9,0.2C108.1,2.9,108,3,108,3.2c0,0.1,0,0.2,0.1,0.3c0.1,0.1,0.1,0.1,0.3,0.2
			c0.1,0.1,0.3,0.1,0.5,0.2c0.2,0.1,0.5,0.1,0.8,0.2c0.7,0.2,1.2,0.3,1.7,0.5c0.5,0.2,0.9,0.4,1.2,0.7c0.3,0.3,0.5,0.6,0.7,0.9
			c0.1,0.4,0.2,0.8,0.2,1.3C113.6,8.2,113.5,8.7,113.3,9.1z"/>
		<path class="st0" d="M123.3,9.1c-0.2,0.4-0.5,0.8-0.9,1.1c-0.4,0.3-0.8,0.5-1.4,0.6c-0.5,0.1-1.1,0.2-1.7,0.2
			c-0.9,0-1.7-0.1-2.4-0.4c-0.8-0.2-1.4-0.6-2-0.9l1.4-2.3c0.2,0.1,0.4,0.3,0.7,0.4c0.3,0.1,0.5,0.2,0.8,0.3
			c0.3,0.1,0.6,0.2,0.8,0.2c0.3,0.1,0.5,0.1,0.8,0.1c0.5,0,0.9-0.1,1.1-0.2c0.2-0.1,0.3-0.3,0.3-0.5c0-0.1,0-0.2-0.1-0.3
			c-0.1-0.1-0.1-0.2-0.3-0.2c-0.1-0.1-0.3-0.2-0.5-0.2c-0.2-0.1-0.5-0.1-0.9-0.2c-0.6-0.1-1.2-0.3-1.7-0.5c-0.5-0.2-0.9-0.4-1.2-0.6
			c-0.3-0.3-0.5-0.6-0.7-0.9c-0.2-0.4-0.2-0.8-0.2-1.3c0-0.5,0.1-0.9,0.3-1.4c0.2-0.4,0.5-0.8,0.8-1.1c0.4-0.3,0.8-0.5,1.3-0.7
			c0.5-0.2,1.1-0.2,1.7-0.2c0.9,0,1.7,0.1,2.4,0.3c0.7,0.2,1.3,0.5,1.8,0.9l-1.4,2.3c-0.5-0.3-0.9-0.6-1.4-0.7
			c-0.5-0.2-1-0.3-1.5-0.3c-0.4,0-0.7,0.1-0.9,0.2C118.1,2.9,118,3,118,3.2c0,0.1,0,0.2,0.1,0.3c0.1,0.1,0.1,0.1,0.3,0.2
			c0.1,0.1,0.3,0.1,0.5,0.2c0.2,0.1,0.5,0.1,0.8,0.2c0.7,0.2,1.2,0.3,1.7,0.5c0.5,0.2,0.9,0.4,1.2,0.7c0.3,0.3,0.5,0.6,0.7,0.9
			c0.1,0.4,0.2,0.8,0.2,1.3C123.6,8.2,123.5,8.7,123.3,9.1z"/>
	</g>
	<g>
		<g>
			<path class="st0" d="M6,10.8L4.3,7.2H3.2v3.5H0.3V0.3H5c0.6,0,1.2,0.1,1.7,0.2C7.2,0.6,7.6,0.8,8,1.1c0.4,0.3,0.6,0.6,0.8,1.1
				c0.2,0.4,0.3,1,0.3,1.6c0,0.8-0.2,1.4-0.5,1.9C8.2,6.1,7.8,6.5,7.2,6.8l2.1,4H6z M5.9,3c-0.2-0.2-0.5-0.3-1-0.3H3.2v2.3h1.7
				c0.5,0,0.8-0.1,1-0.3c0.2-0.2,0.3-0.5,0.3-0.9C6.2,3.4,6.1,3.2,5.9,3z"/>
		</g>
		<g>
			<path class="st0" d="M11,10.8V0.3h8v2.4h-5.1v1.4H17v2.4h-3.1v1.8h5.3v2.4H11z"/>
		</g>
		<g>
			<path class="st0" d="M29.7,7.9c-0.2,0.7-0.6,1.2-1.1,1.6c-0.5,0.4-1.1,0.7-1.8,0.9c-0.7,0.2-1.5,0.3-2.4,0.3H21V0.3h3.7
				c0.8,0,1.6,0.1,2.2,0.3c0.7,0.2,1.2,0.5,1.7,0.9c0.5,0.4,0.8,0.9,1.1,1.6c0.3,0.7,0.4,1.5,0.4,2.5C30.1,6.4,30,7.3,29.7,7.9z
				 M27,4.3c-0.1-0.4-0.2-0.6-0.4-0.9c-0.2-0.2-0.4-0.4-0.7-0.5c-0.3-0.1-0.7-0.2-1.1-0.2H24v5.5h0.6c0.4,0,0.8,0,1.1-0.1
				c0.3-0.1,0.6-0.3,0.8-0.5c0.2-0.2,0.4-0.5,0.4-0.9c0.1-0.4,0.1-0.8,0.1-1.3C27.1,5,27.1,4.6,27,4.3z"/>
		</g>
		<g>
			<path class="st0" d="M42.4,10.8V6.6h-3.3v4.1h-3V0.3h3v3.8h3.3V0.3h3v10.5H42.4z"/>
		</g>
		<g>
			<path class="st0" d="M54.3,10.8l-0.6-1.8h-3.1L50,10.8h-3.1l3.8-10.5h2.9l3.8,10.5H54.3z M52.8,5.9c-0.1-0.3-0.2-0.6-0.2-0.9
				c-0.1-0.3-0.1-0.5-0.2-0.7c-0.1-0.2-0.1-0.4-0.1-0.5c0-0.2-0.1-0.3-0.1-0.5c0,0.2-0.1,0.4-0.1,0.5c0,0.2-0.1,0.4-0.1,0.5
				c-0.1,0.2-0.1,0.4-0.2,0.7c-0.1,0.2-0.2,0.5-0.2,0.9l-0.2,0.7H53L52.8,5.9z"/>
		</g>
		<g>
			<path class="st0" d="M62.9,2.8v7.9H60V2.8H57V0.3h8.8v2.5H62.9z"/>
		</g>
	</g>
	<g>
		<path class="st0" d="M69.2,1.7C69.2,1.9,69.1,2,69,2.1c-0.1,0.1-0.2,0.2-0.3,0.2c-0.1,0.1-0.3,0.1-0.4,0.1c-0.2,0-0.3,0-0.4-0.1
			c-0.1-0.1-0.2-0.1-0.3-0.2c-0.1-0.1-0.2-0.2-0.2-0.3c-0.1-0.1-0.1-0.3-0.1-0.4c0-0.1,0-0.3,0.1-0.4c0.1-0.1,0.1-0.2,0.2-0.3
			c0.1-0.1,0.2-0.2,0.3-0.2c0.1-0.1,0.3-0.1,0.4-0.1c0.1,0,0.3,0,0.4,0.1c0.1,0.1,0.2,0.1,0.3,0.2c0.1,0.1,0.2,0.2,0.2,0.3
			c0.1,0.1,0.1,0.3,0.1,0.4C69.3,1.5,69.3,1.6,69.2,1.7z M69.1,1c0-0.1-0.1-0.2-0.2-0.3c-0.1-0.1-0.2-0.1-0.3-0.2
			c-0.1,0-0.2-0.1-0.3-0.1c-0.1,0-0.2,0-0.4,0.1c-0.1,0-0.2,0.1-0.3,0.2c-0.1,0.1-0.1,0.2-0.2,0.3c0,0.1-0.1,0.2-0.1,0.3
			s0,0.2,0.1,0.3c0,0.1,0.1,0.2,0.2,0.3c0.1,0.1,0.2,0.1,0.3,0.2c0.1,0,0.2,0.1,0.4,0.1c0.1,0,0.2,0,0.3-0.1c0.1,0,0.2-0.1,0.3-0.2
			C69,1.9,69,1.8,69.1,1.7c0-0.1,0.1-0.2,0.1-0.3S69.1,1.1,69.1,1z M68.7,1.3c0,0.1-0.1,0.1-0.2,0.1l0.2,0.5h-0.2l-0.2-0.4H68v0.4
			h-0.2V0.7h0.5c0.1,0,0.1,0,0.1,0c0,0,0.1,0,0.1,0.1c0,0,0.1,0.1,0.1,0.1c0,0,0,0.1,0,0.2C68.7,1.2,68.7,1.2,68.7,1.3z M68.5,1
			c0,0-0.1,0-0.1,0H68v0.3h0.3c0.1,0,0.1,0,0.1,0c0,0,0.1-0.1,0.1-0.1C68.5,1,68.5,1,68.5,1z"/>
	</g>
	<g>
		<path class="st0" d="M127.6,1.7c-0.1,0.1-0.1,0.2-0.2,0.3c-0.1,0.1-0.2,0.2-0.3,0.2c-0.1,0.1-0.3,0.1-0.4,0.1
			c-0.2,0-0.3,0-0.4-0.1c-0.1-0.1-0.2-0.1-0.3-0.2c-0.1-0.1-0.2-0.2-0.2-0.3c-0.1-0.1-0.1-0.3-0.1-0.4c0-0.1,0-0.3,0.1-0.4
			c0.1-0.1,0.1-0.2,0.2-0.3c0.1-0.1,0.2-0.2,0.3-0.2c0.1-0.1,0.3-0.1,0.4-0.1c0.1,0,0.3,0,0.4,0.1c0.1,0.1,0.2,0.1,0.3,0.2
			c0.1,0.1,0.2,0.2,0.2,0.3c0.1,0.1,0.1,0.3,0.1,0.4C127.7,1.5,127.6,1.6,127.6,1.7z M127.4,1c0-0.1-0.1-0.2-0.2-0.3
			c-0.1-0.1-0.2-0.1-0.3-0.2c-0.1,0-0.2-0.1-0.3-0.1c-0.1,0-0.2,0-0.3,0.1c-0.1,0-0.2,0.1-0.3,0.2c-0.1,0.1-0.1,0.2-0.2,0.3
			c0,0.1-0.1,0.2-0.1,0.3s0,0.2,0.1,0.3c0,0.1,0.1,0.2,0.2,0.3c0.1,0.1,0.2,0.1,0.3,0.2c0.1,0,0.2,0.1,0.3,0.1c0.1,0,0.2,0,0.3-0.1
			c0.1,0,0.2-0.1,0.3-0.2c0.1-0.1,0.1-0.2,0.2-0.3c0-0.1,0.1-0.2,0.1-0.3S127.5,1.1,127.4,1z M127,1.3c0,0.1-0.1,0.1-0.2,0.1
			l0.2,0.5h-0.2l-0.2-0.4h-0.2v0.4h-0.2V0.7h0.5c0.1,0,0.1,0,0.1,0c0,0,0.1,0,0.1,0.1c0,0,0.1,0.1,0.1,0.1c0,0,0,0.1,0,0.2
			C127.1,1.2,127.1,1.2,127,1.3z M126.8,1c0,0-0.1,0-0.1,0h-0.3v0.3h0.3c0.1,0,0.1,0,0.1,0c0,0,0.1-0.1,0.1-0.1
			C126.9,1,126.9,1,126.8,1z"/>
	</g>
	<g>
		<path class="st0" d="M141,8.8c-0.2,0.4-0.4,0.8-0.8,1.1c-0.3,0.3-0.7,0.5-1.2,0.7c-0.5,0.1-1,0.2-1.5,0.2h-4.8V0.2h4.9
			c1,0,1.8,0.2,2.5,0.7c0.6,0.5,0.9,1.2,0.9,2.1c0,0.5-0.1,0.9-0.3,1.2c-0.2,0.4-0.5,0.6-0.8,0.8c0.4,0.2,0.8,0.5,1.1,0.9
			c0.3,0.4,0.4,0.9,0.4,1.5C141.3,7.9,141.2,8.4,141,8.8z M138.4,2.4c-0.2-0.2-0.5-0.3-1-0.3h-2.7v2h2.8c0.4,0,0.8-0.1,0.9-0.3
			c0.2-0.2,0.3-0.4,0.3-0.7C138.8,2.8,138.7,2.6,138.4,2.4z M137.6,6h-2.8v2.7h2.8c0.5,0,0.9-0.1,1.1-0.4c0.2-0.2,0.4-0.6,0.4-1
			C139.1,6.5,138.6,6,137.6,6z"/>
		<path class="st0" d="M149.6,10.8l-1.9-3.8h-2.1v3.8h-2.1V0.2h4.9c0.5,0,1,0.1,1.4,0.2c0.4,0.1,0.8,0.3,1.2,0.6
			c0.3,0.3,0.6,0.6,0.8,1.1c0.2,0.4,0.3,0.9,0.3,1.5c0,0.8-0.2,1.4-0.5,2c-0.3,0.5-0.8,0.9-1.5,1.2l2,4.1H149.6z M149.4,2.6
			c-0.3-0.2-0.6-0.3-1.1-0.3h-2.8v2.7h2.8c1,0,1.5-0.5,1.5-1.4C149.8,3.1,149.7,2.8,149.4,2.6z"/>
		<path class="st0" d="M162,10.8V6.9c0-0.1,0-0.3,0-0.5s0-0.4,0-0.7c0-0.2,0-0.4,0-0.7c0-0.2,0-0.4,0-0.5c-0.1,0.2-0.2,0.5-0.3,0.8
			c-0.1,0.3-0.3,0.7-0.4,1l-2.2,4.7L157,6.3c-0.1-0.3-0.3-0.6-0.4-1c-0.1-0.3-0.2-0.6-0.3-0.8c0,0.1,0,0.3,0,0.5c0,0.2,0,0.4,0,0.7
			c0,0.2,0,0.5,0,0.7c0,0.2,0,0.4,0,0.5v3.9h-2.1V0.2h2l2.2,4.8c0.1,0.2,0.1,0.3,0.2,0.5c0.1,0.2,0.1,0.3,0.2,0.5
			c0.1,0.2,0.1,0.3,0.2,0.5c0.1,0.1,0.1,0.3,0.1,0.3c0.1-0.2,0.2-0.5,0.3-0.8c0.1-0.3,0.3-0.7,0.4-1l2.1-4.8h2.1v10.6H162z"/>
		<path class="st0" d="M174.4,8.9c-0.2,0.4-0.4,0.8-0.8,1.1c-0.3,0.3-0.8,0.5-1.3,0.7c-0.5,0.2-1.1,0.2-1.9,0.2
			c-0.9,0-1.7-0.2-2.4-0.5c-0.7-0.3-1.3-0.8-1.7-1.4l1.5-1.4c0.4,0.4,0.8,0.7,1.2,0.9c0.5,0.2,0.9,0.3,1.5,0.3
			c0.6,0,1.1-0.1,1.4-0.3c0.3-0.2,0.4-0.5,0.4-0.9c0-0.2,0-0.3-0.1-0.4c-0.1-0.1-0.2-0.2-0.3-0.4c-0.2-0.1-0.4-0.2-0.7-0.3
			c-0.3-0.1-0.7-0.2-1.2-0.3c-0.5-0.1-0.9-0.2-1.3-0.4c-0.4-0.2-0.8-0.3-1.1-0.6c-0.3-0.2-0.5-0.5-0.7-0.9c-0.2-0.4-0.2-0.8-0.2-1.3
			c0-0.5,0.1-0.9,0.3-1.3c0.2-0.4,0.5-0.7,0.8-1s0.7-0.5,1.2-0.6c0.5-0.1,1-0.2,1.5-0.2c0.8,0,1.6,0.1,2.2,0.4s1.2,0.7,1.7,1.2
			l-1.5,1.5c-0.3-0.4-0.7-0.6-1.1-0.8s-0.8-0.3-1.3-0.3c-0.3,0-0.5,0-0.7,0.1c-0.2,0.1-0.3,0.1-0.5,0.2c-0.1,0.1-0.2,0.2-0.3,0.3
			C169,2.8,169,2.9,169,3c0,0.2,0,0.3,0.1,0.4c0.1,0.1,0.2,0.2,0.3,0.3c0.2,0.1,0.4,0.2,0.7,0.3c0.3,0.1,0.6,0.2,1,0.3
			c0.4,0.1,0.8,0.2,1.3,0.4s0.8,0.3,1.1,0.6c0.3,0.2,0.6,0.5,0.8,0.9s0.3,0.8,0.3,1.4C174.6,8.1,174.6,8.5,174.4,8.9z"/>
	</g>
</g>
</svg>
